G75*
G70*
%OFA0B0*%
%FSLAX24Y24*%
%IPPOS*%
%LPD*%
%AMOC8*
5,1,8,0,0,1.08239X$1,22.5*
%
%ADD10C,0.0060*%
%ADD11C,0.0010*%
%ADD12R,0.0191X0.0195*%
D10*
X011105Y018335D02*
X011048Y018392D01*
X011105Y018335D02*
X011218Y018335D01*
X011275Y018392D01*
X011275Y018619D01*
X011218Y018675D01*
X011105Y018675D01*
X011048Y018619D01*
X011417Y018619D02*
X011473Y018675D01*
X011587Y018675D01*
X011643Y018619D01*
X011643Y018392D01*
X011587Y018335D01*
X011473Y018335D01*
X011417Y018392D01*
X011785Y018448D02*
X011785Y018675D01*
X011785Y018448D02*
X011898Y018335D01*
X012012Y018448D01*
X012012Y018675D01*
X011955Y019335D02*
X011842Y019335D01*
X011785Y019392D01*
X011785Y019505D01*
X011898Y019505D01*
X011785Y019619D02*
X011842Y019675D01*
X011955Y019675D01*
X012012Y019619D01*
X012012Y019392D01*
X011955Y019335D01*
X011643Y019335D02*
X011643Y019675D01*
X011417Y019335D01*
X011417Y019675D01*
X011275Y019675D02*
X011105Y019675D01*
X011048Y019619D01*
X011048Y019392D01*
X011105Y019335D01*
X011275Y019335D01*
X011275Y019675D01*
X011275Y020335D02*
X011275Y020562D01*
X011162Y020675D01*
X011048Y020562D01*
X011048Y020335D01*
X011048Y020505D02*
X011275Y020505D01*
X011417Y020392D02*
X011417Y020619D01*
X011473Y020675D01*
X011643Y020675D01*
X011643Y020335D01*
X011473Y020335D01*
X011417Y020392D01*
X011785Y020392D02*
X011785Y020448D01*
X011842Y020505D01*
X011955Y020505D01*
X012012Y020562D01*
X012012Y020619D01*
X011955Y020675D01*
X011842Y020675D01*
X011785Y020619D01*
X011785Y020392D02*
X011842Y020335D01*
X011955Y020335D01*
X012012Y020392D01*
X011955Y021335D02*
X012012Y021392D01*
X011955Y021335D02*
X011842Y021335D01*
X011785Y021392D01*
X011785Y021448D01*
X011842Y021505D01*
X011955Y021505D01*
X012012Y021562D01*
X012012Y021619D01*
X011955Y021675D01*
X011842Y021675D01*
X011785Y021619D01*
X011643Y021619D02*
X011643Y021392D01*
X011587Y021335D01*
X011473Y021335D01*
X011417Y021392D01*
X011275Y021335D02*
X011048Y021335D01*
X011275Y021335D02*
X011275Y021675D01*
X011417Y021619D02*
X011473Y021675D01*
X011587Y021675D01*
X011643Y021619D01*
X011644Y022335D02*
X011644Y022675D01*
X011417Y022335D01*
X011417Y022675D01*
X011275Y022675D02*
X011048Y022675D01*
X011162Y022675D02*
X011162Y022335D01*
X011776Y022335D02*
X011889Y022335D01*
X011832Y022335D02*
X011832Y022675D01*
X011776Y022675D02*
X011889Y022675D01*
X012031Y022675D02*
X012031Y022392D01*
X012087Y022335D01*
X012201Y022335D01*
X012257Y022392D01*
X012257Y022675D01*
X012399Y022675D02*
X012399Y022335D01*
X012626Y022335D02*
X012626Y022675D01*
X012512Y022562D01*
X012399Y022675D01*
X012758Y022675D02*
X012871Y022675D01*
X012814Y022675D02*
X012814Y022335D01*
X012758Y022335D02*
X012871Y022335D01*
X013867Y022415D02*
X013867Y022529D01*
X013924Y022586D01*
X013924Y022727D02*
X013867Y022784D01*
X013867Y022897D01*
X013924Y022954D01*
X014037Y022954D01*
X014094Y022897D01*
X014094Y022784D01*
X014037Y022727D01*
X013924Y022727D01*
X014150Y022586D02*
X014207Y022529D01*
X014207Y022415D01*
X014150Y022359D01*
X013924Y022359D01*
X013867Y022415D01*
X013924Y021849D02*
X013867Y021792D01*
X013867Y021679D01*
X013924Y021622D01*
X014150Y021849D01*
X013924Y021849D01*
X014150Y021849D02*
X014207Y021792D01*
X014207Y021679D01*
X014150Y021622D01*
X013924Y021622D01*
X013924Y021481D02*
X013867Y021424D01*
X013867Y021310D01*
X013924Y021254D01*
X014150Y021481D01*
X013924Y021481D01*
X014150Y021481D02*
X014207Y021424D01*
X014207Y021310D01*
X014150Y021254D01*
X013924Y021254D01*
X013924Y021112D02*
X013867Y021056D01*
X013867Y020942D01*
X013924Y020885D01*
X014150Y021112D01*
X013924Y021112D01*
X014150Y021112D02*
X014207Y021056D01*
X014207Y020942D01*
X014150Y020885D01*
X013924Y020885D01*
X013924Y020744D02*
X013867Y020687D01*
X013867Y020574D01*
X013924Y020517D01*
X013924Y020376D02*
X014207Y020376D01*
X014150Y020517D02*
X014207Y020574D01*
X014207Y020687D01*
X014150Y020744D01*
X014094Y020744D01*
X014037Y020687D01*
X013980Y020744D01*
X013924Y020744D01*
X014037Y020687D02*
X014037Y020631D01*
X013924Y020376D02*
X013867Y020319D01*
X013867Y020206D01*
X013924Y020149D01*
X014207Y020149D01*
X014207Y020007D02*
X013867Y020007D01*
X013867Y019781D02*
X014207Y019781D01*
X014094Y019894D01*
X014207Y020007D01*
X014207Y019648D02*
X014207Y019535D01*
X014207Y019592D02*
X013867Y019592D01*
X013867Y019648D02*
X013867Y019535D01*
X013867Y023095D02*
X014094Y023095D01*
X014094Y023152D01*
X014037Y023209D01*
X014094Y023265D01*
X014037Y023322D01*
X013867Y023322D01*
X013867Y023209D02*
X014037Y023209D01*
X014094Y023464D02*
X014094Y023634D01*
X014037Y023690D01*
X013924Y023690D01*
X013867Y023634D01*
X013867Y023464D01*
X014207Y023464D01*
X014037Y023832D02*
X013924Y023832D01*
X013867Y023889D01*
X013867Y024002D01*
X013924Y024059D01*
X014037Y024059D01*
X014094Y024002D01*
X014094Y023889D01*
X014037Y023832D01*
X012994Y023562D02*
X012994Y023335D01*
X012994Y023505D02*
X012767Y023505D01*
X012767Y023562D02*
X012767Y023335D01*
X012626Y023335D02*
X012399Y023562D01*
X012257Y023675D02*
X012144Y023675D01*
X012201Y023675D02*
X012201Y023335D01*
X012257Y023335D02*
X012144Y023335D01*
X012012Y023335D02*
X012012Y023675D01*
X011785Y023335D01*
X011785Y023675D01*
X011644Y023675D02*
X011417Y023675D01*
X011530Y023675D02*
X011530Y023335D01*
X011275Y023335D02*
X011048Y023335D01*
X011162Y023335D02*
X011162Y023675D01*
X011275Y023562D01*
X012399Y023335D02*
X012626Y023562D01*
X012767Y023562D02*
X012881Y023675D01*
X012994Y023562D01*
X012994Y024335D02*
X012994Y024562D01*
X012881Y024675D01*
X012767Y024562D01*
X012767Y024335D01*
X012626Y024335D02*
X012399Y024562D01*
X012257Y024675D02*
X012144Y024675D01*
X012201Y024675D02*
X012201Y024335D01*
X012257Y024335D02*
X012144Y024335D01*
X012012Y024335D02*
X012012Y024675D01*
X011785Y024335D01*
X011785Y024675D01*
X011644Y024675D02*
X011417Y024675D01*
X011530Y024675D02*
X011530Y024335D01*
X011275Y024335D02*
X011048Y024562D01*
X011048Y024619D01*
X011105Y024675D01*
X011219Y024675D01*
X011275Y024619D01*
X011275Y024335D02*
X011048Y024335D01*
X012399Y024335D02*
X012626Y024562D01*
X012767Y024505D02*
X012994Y024505D01*
D11*
X014776Y018261D02*
X014796Y018244D01*
X014820Y018232D01*
X014870Y018215D01*
X014893Y018211D01*
X014907Y018210D01*
X014759Y018491D01*
X014795Y018653D01*
X014926Y018697D01*
X014940Y018690D01*
X015129Y018365D01*
X015237Y018346D01*
X015282Y018495D01*
X015229Y018661D01*
X015172Y018738D01*
X015186Y018757D01*
X015208Y018749D01*
X015239Y018735D01*
X015256Y018724D01*
X015272Y018710D01*
X015302Y018672D01*
X015323Y018629D01*
X015337Y018576D01*
X015343Y018521D01*
X015343Y018450D01*
X015337Y018394D01*
X015321Y018339D01*
X015295Y018289D01*
X015280Y018270D01*
X015262Y018255D01*
X015242Y018243D01*
X015199Y018229D01*
X015155Y018224D01*
X015110Y018228D01*
X015091Y018234D01*
X015073Y018244D01*
X015058Y018257D01*
X015037Y018284D01*
X015020Y018313D01*
X015008Y018345D01*
X014974Y018488D01*
X014962Y018535D01*
X014943Y018579D01*
X014933Y018593D01*
X014920Y018604D01*
X014905Y018612D01*
X014888Y018616D01*
X014871Y018615D01*
X014854Y018610D01*
X014840Y018601D01*
X014828Y018589D01*
X014815Y018568D01*
X014776Y018568D01*
X014782Y018568D02*
X014702Y018568D01*
X014701Y018559D02*
X014780Y018559D01*
X014774Y018559D02*
X014812Y018559D01*
X014809Y018551D02*
X014772Y018551D01*
X014779Y018551D02*
X014700Y018551D01*
X014707Y018603D01*
X014718Y018642D01*
X014736Y018679D01*
X014760Y018712D01*
X014789Y018741D01*
X014811Y018756D01*
X014987Y018756D01*
X014984Y018758D02*
X015000Y018748D01*
X015014Y018735D01*
X015034Y018708D01*
X015050Y018678D01*
X015074Y018613D01*
X015089Y018545D01*
X015105Y018465D01*
X015116Y018435D01*
X015133Y018407D01*
X015145Y018395D01*
X015161Y018387D01*
X015177Y018384D01*
X015193Y018386D01*
X015208Y018393D01*
X015219Y018403D01*
X015228Y018416D01*
X015234Y018434D01*
X015238Y018452D01*
X015240Y018486D01*
X015238Y018520D01*
X015234Y018540D01*
X015226Y018560D01*
X015215Y018577D01*
X015204Y018589D01*
X015191Y018598D01*
X015176Y018604D01*
X015165Y018606D01*
X015155Y018607D01*
X015155Y018760D01*
X015183Y018757D01*
X015234Y018676D01*
X015286Y018497D01*
X015243Y018332D01*
X015123Y018353D01*
X015020Y018526D01*
X014929Y018693D01*
X014801Y018650D01*
X014766Y018495D01*
X014907Y018210D01*
X014907Y018362D01*
X014905Y018362D01*
X014885Y018363D01*
X014865Y018369D01*
X014848Y018380D01*
X014830Y018398D01*
X014816Y018420D01*
X014807Y018444D01*
X014804Y018467D01*
X014804Y018520D01*
X014807Y018545D01*
X014815Y018568D01*
X014820Y018577D02*
X014778Y018577D01*
X014784Y018577D02*
X014703Y018577D01*
X014704Y018585D02*
X014786Y018585D01*
X014780Y018585D02*
X014825Y018585D01*
X014832Y018594D02*
X014782Y018594D01*
X014788Y018594D02*
X014706Y018594D01*
X014707Y018602D02*
X014790Y018602D01*
X014784Y018602D02*
X014841Y018602D01*
X014857Y018611D02*
X014785Y018611D01*
X014792Y018611D02*
X014709Y018611D01*
X014711Y018619D02*
X014794Y018619D01*
X014787Y018619D02*
X014981Y018619D01*
X014986Y018611D02*
X014908Y018611D01*
X014923Y018602D02*
X014991Y018602D01*
X014996Y018594D02*
X014933Y018594D01*
X014939Y018585D02*
X015001Y018585D01*
X015006Y018577D02*
X014944Y018577D01*
X014948Y018568D02*
X015011Y018568D01*
X015016Y018559D02*
X014951Y018559D01*
X014955Y018551D02*
X015021Y018551D01*
X015026Y018542D02*
X014958Y018542D01*
X014962Y018534D02*
X015031Y018534D01*
X015036Y018525D02*
X014964Y018525D01*
X014966Y018517D02*
X015041Y018517D01*
X015046Y018508D02*
X014969Y018508D01*
X014971Y018500D02*
X015051Y018500D01*
X015056Y018491D02*
X014973Y018491D01*
X014975Y018483D02*
X015060Y018483D01*
X015065Y018474D02*
X014977Y018474D01*
X014979Y018466D02*
X015070Y018466D01*
X015075Y018457D02*
X014981Y018457D01*
X014983Y018448D02*
X015080Y018448D01*
X015085Y018440D02*
X014985Y018440D01*
X014987Y018431D02*
X015090Y018431D01*
X015095Y018423D02*
X014989Y018423D01*
X014991Y018414D02*
X015100Y018414D01*
X015105Y018406D02*
X014993Y018406D01*
X014995Y018397D02*
X015110Y018397D01*
X015115Y018389D02*
X014997Y018389D01*
X015000Y018380D02*
X015120Y018380D01*
X015125Y018372D02*
X015002Y018372D01*
X015004Y018363D02*
X015140Y018363D01*
X015122Y018354D02*
X015249Y018354D01*
X015246Y018346D02*
X015164Y018346D01*
X015189Y018354D02*
X015006Y018354D01*
X015008Y018346D02*
X015322Y018346D01*
X015325Y018354D02*
X015239Y018354D01*
X015242Y018363D02*
X015328Y018363D01*
X015330Y018372D02*
X015245Y018372D01*
X015253Y018372D02*
X015112Y018372D01*
X015107Y018380D02*
X015255Y018380D01*
X015247Y018380D02*
X015333Y018380D01*
X015335Y018389D02*
X015250Y018389D01*
X015258Y018389D02*
X015198Y018389D01*
X015213Y018397D02*
X015260Y018397D01*
X015252Y018397D02*
X015337Y018397D01*
X015338Y018406D02*
X015255Y018406D01*
X015262Y018406D02*
X015221Y018406D01*
X015227Y018414D02*
X015264Y018414D01*
X015257Y018414D02*
X015339Y018414D01*
X015340Y018423D02*
X015260Y018423D01*
X015267Y018423D02*
X015230Y018423D01*
X015233Y018431D02*
X015269Y018431D01*
X015263Y018431D02*
X015341Y018431D01*
X015342Y018440D02*
X015265Y018440D01*
X015271Y018440D02*
X015236Y018440D01*
X015237Y018448D02*
X015273Y018448D01*
X015268Y018448D02*
X015343Y018448D01*
X015343Y018457D02*
X015270Y018457D01*
X015275Y018457D02*
X015238Y018457D01*
X015239Y018466D02*
X015278Y018466D01*
X015273Y018466D02*
X015343Y018466D01*
X015343Y018474D02*
X015276Y018474D01*
X015280Y018474D02*
X015239Y018474D01*
X015239Y018483D02*
X015282Y018483D01*
X015278Y018483D02*
X015343Y018483D01*
X015343Y018491D02*
X015281Y018491D01*
X015284Y018491D02*
X015239Y018491D01*
X015239Y018500D02*
X015285Y018500D01*
X015280Y018500D02*
X015343Y018500D01*
X015343Y018508D02*
X015278Y018508D01*
X015283Y018508D02*
X015238Y018508D01*
X015238Y018517D02*
X015280Y018517D01*
X015275Y018517D02*
X015343Y018517D01*
X015342Y018525D02*
X015272Y018525D01*
X015278Y018525D02*
X015237Y018525D01*
X015235Y018534D02*
X015275Y018534D01*
X015269Y018534D02*
X015342Y018534D01*
X015341Y018542D02*
X015267Y018542D01*
X015273Y018542D02*
X015233Y018542D01*
X015230Y018551D02*
X015270Y018551D01*
X015264Y018551D02*
X015340Y018551D01*
X015339Y018559D02*
X015261Y018559D01*
X015268Y018559D02*
X015226Y018559D01*
X015221Y018568D02*
X015265Y018568D01*
X015259Y018568D02*
X015338Y018568D01*
X015337Y018577D02*
X015256Y018577D01*
X015263Y018577D02*
X015215Y018577D01*
X015207Y018585D02*
X015260Y018585D01*
X015253Y018585D02*
X015335Y018585D01*
X015332Y018594D02*
X015250Y018594D01*
X015258Y018594D02*
X015196Y018594D01*
X015180Y018602D02*
X015255Y018602D01*
X015248Y018602D02*
X015330Y018602D01*
X015328Y018611D02*
X015245Y018611D01*
X015253Y018611D02*
X015155Y018611D01*
X015155Y018619D02*
X015250Y018619D01*
X015242Y018619D02*
X015325Y018619D01*
X015323Y018628D02*
X015239Y018628D01*
X015237Y018636D02*
X015319Y018636D01*
X015315Y018645D02*
X015234Y018645D01*
X015231Y018653D02*
X015311Y018653D01*
X015307Y018662D02*
X015228Y018662D01*
X015238Y018662D02*
X015155Y018662D01*
X015155Y018671D02*
X015235Y018671D01*
X015232Y018679D02*
X015155Y018679D01*
X015155Y018688D02*
X015227Y018688D01*
X015221Y018696D02*
X015155Y018696D01*
X015155Y018705D02*
X015216Y018705D01*
X015210Y018713D02*
X015155Y018713D01*
X015155Y018722D02*
X015205Y018722D01*
X015200Y018730D02*
X015155Y018730D01*
X015155Y018739D02*
X015194Y018739D01*
X015189Y018747D02*
X015155Y018747D01*
X015155Y018756D02*
X015184Y018756D01*
X015185Y018756D02*
X015189Y018756D01*
X015179Y018747D02*
X015211Y018747D01*
X015230Y018739D02*
X015172Y018739D01*
X015178Y018730D02*
X015246Y018730D01*
X015259Y018722D02*
X015184Y018722D01*
X015190Y018713D02*
X015268Y018713D01*
X015276Y018705D02*
X015197Y018705D01*
X015203Y018696D02*
X015283Y018696D01*
X015289Y018688D02*
X015209Y018688D01*
X015216Y018679D02*
X015296Y018679D01*
X015302Y018671D02*
X015222Y018671D01*
X015240Y018653D02*
X015155Y018653D01*
X015155Y018645D02*
X015243Y018645D01*
X015245Y018636D02*
X015155Y018636D01*
X015155Y018628D02*
X015248Y018628D01*
X015078Y018594D02*
X014983Y018594D01*
X014978Y018602D02*
X015076Y018602D01*
X015074Y018611D02*
X014974Y018611D01*
X014969Y018619D02*
X015071Y018619D01*
X015068Y018628D02*
X014964Y018628D01*
X014960Y018636D02*
X015065Y018636D01*
X015062Y018645D02*
X014955Y018645D01*
X014950Y018653D02*
X015059Y018653D01*
X015056Y018662D02*
X014946Y018662D01*
X014941Y018671D02*
X015053Y018671D01*
X015049Y018679D02*
X014936Y018679D01*
X014932Y018688D02*
X015045Y018688D01*
X015040Y018696D02*
X014748Y018696D01*
X014742Y018688D02*
X014913Y018688D01*
X014923Y018696D02*
X014928Y018696D01*
X014941Y018688D02*
X014898Y018688D01*
X014887Y018679D02*
X014736Y018679D01*
X014732Y018671D02*
X014862Y018671D01*
X014872Y018679D02*
X014946Y018679D01*
X014951Y018671D02*
X014847Y018671D01*
X014837Y018662D02*
X014727Y018662D01*
X014723Y018653D02*
X014811Y018653D01*
X014800Y018645D02*
X014719Y018645D01*
X014716Y018636D02*
X014798Y018636D01*
X014791Y018636D02*
X014971Y018636D01*
X014976Y018628D02*
X014789Y018628D01*
X014796Y018628D02*
X014714Y018628D01*
X014700Y018551D02*
X014698Y018499D01*
X014705Y018398D01*
X014713Y018362D01*
X014729Y018328D01*
X014759Y018281D01*
X014776Y018261D01*
X014776Y018260D02*
X014882Y018260D01*
X014880Y018260D02*
X014907Y018260D01*
X014907Y018252D02*
X014885Y018252D01*
X014886Y018252D02*
X014787Y018252D01*
X014798Y018243D02*
X014890Y018243D01*
X014889Y018243D02*
X014907Y018243D01*
X014907Y018235D02*
X014894Y018235D01*
X014895Y018235D02*
X014814Y018235D01*
X014837Y018226D02*
X014899Y018226D01*
X014898Y018226D02*
X014907Y018226D01*
X014903Y018218D02*
X014907Y018218D01*
X014903Y018218D02*
X014862Y018218D01*
X014876Y018269D02*
X014907Y018269D01*
X014907Y018278D02*
X014871Y018278D01*
X014873Y018278D02*
X014762Y018278D01*
X014756Y018286D02*
X014869Y018286D01*
X014867Y018286D02*
X014907Y018286D01*
X014907Y018295D02*
X014862Y018295D01*
X014865Y018295D02*
X014750Y018295D01*
X014745Y018303D02*
X014861Y018303D01*
X014858Y018303D02*
X014907Y018303D01*
X014907Y018312D02*
X014853Y018312D01*
X014857Y018312D02*
X014739Y018312D01*
X014734Y018320D02*
X014852Y018320D01*
X014849Y018320D02*
X014907Y018320D01*
X014907Y018329D02*
X014844Y018329D01*
X014848Y018329D02*
X014729Y018329D01*
X014725Y018337D02*
X014844Y018337D01*
X014840Y018337D02*
X014907Y018337D01*
X014907Y018346D02*
X014835Y018346D01*
X014840Y018346D02*
X014721Y018346D01*
X014717Y018354D02*
X014835Y018354D01*
X014831Y018354D02*
X014907Y018354D01*
X014889Y018363D02*
X014826Y018363D01*
X014831Y018363D02*
X014713Y018363D01*
X014711Y018372D02*
X014827Y018372D01*
X014822Y018372D02*
X014862Y018372D01*
X014848Y018380D02*
X014817Y018380D01*
X014823Y018380D02*
X014709Y018380D01*
X014707Y018389D02*
X014819Y018389D01*
X014813Y018389D02*
X014839Y018389D01*
X014831Y018397D02*
X014808Y018397D01*
X014814Y018397D02*
X014705Y018397D01*
X014704Y018406D02*
X014810Y018406D01*
X014804Y018406D02*
X014825Y018406D01*
X014819Y018414D02*
X014799Y018414D01*
X014806Y018414D02*
X014704Y018414D01*
X014703Y018423D02*
X014802Y018423D01*
X014795Y018423D02*
X014815Y018423D01*
X014812Y018431D02*
X014790Y018431D01*
X014797Y018431D02*
X014703Y018431D01*
X014702Y018440D02*
X014793Y018440D01*
X014786Y018440D02*
X014808Y018440D01*
X014806Y018448D02*
X014781Y018448D01*
X014789Y018448D02*
X014701Y018448D01*
X014701Y018457D02*
X014785Y018457D01*
X014777Y018457D02*
X014805Y018457D01*
X014804Y018466D02*
X014772Y018466D01*
X014780Y018466D02*
X014700Y018466D01*
X014700Y018474D02*
X014776Y018474D01*
X014768Y018474D02*
X014804Y018474D01*
X014804Y018483D02*
X014763Y018483D01*
X014772Y018483D02*
X014699Y018483D01*
X014698Y018491D02*
X014768Y018491D01*
X014767Y018500D02*
X014698Y018500D01*
X014698Y018508D02*
X014769Y018508D01*
X014763Y018508D02*
X014804Y018508D01*
X014804Y018500D02*
X014761Y018500D01*
X014759Y018491D02*
X014804Y018491D01*
X014804Y018517D02*
X014765Y018517D01*
X014771Y018517D02*
X014698Y018517D01*
X014699Y018525D02*
X014773Y018525D01*
X014766Y018525D02*
X014805Y018525D01*
X014806Y018534D02*
X014768Y018534D01*
X014775Y018534D02*
X014699Y018534D01*
X014699Y018542D02*
X014777Y018542D01*
X014770Y018542D02*
X014807Y018542D01*
X014793Y018645D02*
X014966Y018645D01*
X014961Y018653D02*
X014796Y018653D01*
X014822Y018662D02*
X014956Y018662D01*
X014988Y018585D02*
X015080Y018585D01*
X015082Y018577D02*
X014992Y018577D01*
X014997Y018568D02*
X015084Y018568D01*
X015086Y018559D02*
X015002Y018559D01*
X015006Y018551D02*
X015088Y018551D01*
X015089Y018542D02*
X015011Y018542D01*
X015016Y018534D02*
X015091Y018534D01*
X015093Y018525D02*
X015020Y018525D01*
X015025Y018517D02*
X015094Y018517D01*
X015096Y018508D02*
X015030Y018508D01*
X015036Y018500D02*
X015098Y018500D01*
X015100Y018491D02*
X015041Y018491D01*
X015046Y018483D02*
X015101Y018483D01*
X015103Y018474D02*
X015051Y018474D01*
X015056Y018466D02*
X015105Y018466D01*
X015108Y018457D02*
X015061Y018457D01*
X015066Y018448D02*
X015111Y018448D01*
X015114Y018440D02*
X015071Y018440D01*
X015076Y018431D02*
X015118Y018431D01*
X015123Y018423D02*
X015081Y018423D01*
X015086Y018414D02*
X015128Y018414D01*
X015134Y018406D02*
X015091Y018406D01*
X015097Y018397D02*
X015143Y018397D01*
X015158Y018389D02*
X015102Y018389D01*
X015117Y018363D02*
X015251Y018363D01*
X015244Y018337D02*
X015212Y018337D01*
X015286Y018278D02*
X015042Y018278D01*
X015035Y018286D02*
X015293Y018286D01*
X015298Y018295D02*
X015030Y018295D01*
X015026Y018303D02*
X015302Y018303D01*
X015306Y018312D02*
X015021Y018312D01*
X015017Y018320D02*
X015311Y018320D01*
X015315Y018329D02*
X015014Y018329D01*
X015011Y018337D02*
X015319Y018337D01*
X015279Y018269D02*
X015048Y018269D01*
X015055Y018260D02*
X015269Y018260D01*
X015257Y018252D02*
X015064Y018252D01*
X015074Y018243D02*
X015242Y018243D01*
X015217Y018235D02*
X015089Y018235D01*
X015128Y018226D02*
X015176Y018226D01*
X014878Y018269D02*
X014769Y018269D01*
X014754Y018705D02*
X015036Y018705D01*
X015030Y018713D02*
X014760Y018713D01*
X014769Y018722D02*
X015024Y018722D01*
X015017Y018730D02*
X014778Y018730D01*
X014787Y018739D02*
X015010Y018739D01*
X015001Y018747D02*
X014798Y018747D01*
X014811Y018756D02*
X014836Y018766D01*
X014862Y018772D01*
X014903Y018775D01*
X014944Y018771D01*
X014984Y018758D01*
X014965Y018765D02*
X014831Y018765D01*
X014876Y018773D02*
X014925Y018773D01*
X014969Y019014D02*
X014938Y019019D01*
X014911Y019028D01*
X014909Y019028D01*
X014908Y019028D01*
X014907Y019026D01*
X014907Y019025D01*
X014907Y019020D01*
X014785Y019020D01*
X014344Y019020D01*
X014491Y018857D01*
X015298Y018857D01*
X015301Y018857D01*
X015330Y019010D01*
X015251Y019009D01*
X015248Y019012D01*
X015247Y019014D01*
X015257Y019023D01*
X015295Y019058D01*
X015307Y019072D01*
X015193Y019072D01*
X015190Y019069D02*
X015163Y019045D01*
X015134Y019028D01*
X015103Y019017D01*
X015070Y019013D01*
X014969Y019014D01*
X014933Y019021D02*
X014907Y019021D01*
X014901Y019029D02*
X014904Y019032D01*
X014902Y019032D01*
X014898Y019033D01*
X014895Y019035D01*
X014892Y019037D01*
X014869Y019049D01*
X014850Y019066D01*
X014835Y019087D01*
X014823Y019115D01*
X014712Y019115D01*
X014710Y019123D02*
X014821Y019123D01*
X014823Y019115D02*
X014817Y019144D01*
X014817Y019181D01*
X014824Y019217D01*
X014838Y019247D01*
X014859Y019273D01*
X014886Y019292D01*
X014917Y019304D01*
X014994Y019316D01*
X015073Y019316D01*
X015112Y019308D01*
X015149Y019292D01*
X015180Y019268D01*
X015206Y019237D01*
X015217Y019216D01*
X015223Y019194D01*
X015225Y019171D01*
X015223Y019128D01*
X015220Y019112D01*
X015213Y019098D01*
X015190Y019069D01*
X015184Y019064D02*
X015300Y019064D01*
X015307Y019072D02*
X015316Y019087D01*
X015337Y019139D01*
X015341Y019158D01*
X015342Y019236D01*
X015335Y019279D01*
X015319Y019319D01*
X015298Y019355D01*
X015272Y019387D01*
X015237Y019418D01*
X015196Y019441D01*
X015113Y019468D01*
X015026Y019479D01*
X014939Y019474D01*
X014885Y019461D01*
X014833Y019439D01*
X015199Y019439D01*
X015214Y019431D02*
X014820Y019431D01*
X014807Y019422D02*
X015229Y019422D01*
X015242Y019414D02*
X014794Y019414D01*
X014787Y019409D02*
X014759Y019383D01*
X014736Y019353D01*
X014718Y019319D01*
X014707Y019283D01*
X014699Y019235D01*
X014699Y019187D01*
X014705Y019139D01*
X014715Y019106D01*
X014827Y019106D01*
X014830Y019098D02*
X014720Y019098D01*
X014715Y019106D02*
X014732Y019076D01*
X014756Y019050D01*
X014784Y019029D01*
X014901Y019029D01*
X014783Y019029D01*
X014772Y019038D02*
X014890Y019038D01*
X014874Y019046D02*
X014760Y019046D01*
X014751Y019055D02*
X014862Y019055D01*
X014853Y019064D02*
X014743Y019064D01*
X014736Y019072D02*
X014846Y019072D01*
X014839Y019081D02*
X014730Y019081D01*
X014725Y019089D02*
X014834Y019089D01*
X014819Y019132D02*
X014707Y019132D01*
X014705Y019140D02*
X014818Y019140D01*
X014817Y019149D02*
X014704Y019149D01*
X014702Y019158D02*
X014817Y019158D01*
X014817Y019166D02*
X014701Y019166D01*
X014700Y019175D02*
X014817Y019175D01*
X014817Y019183D02*
X014699Y019183D01*
X014699Y019192D02*
X014819Y019192D01*
X014820Y019200D02*
X014699Y019200D01*
X014699Y019209D02*
X014822Y019209D01*
X014824Y019217D02*
X014699Y019217D01*
X014699Y019226D02*
X014828Y019226D01*
X014832Y019234D02*
X014699Y019234D01*
X014701Y019243D02*
X014836Y019243D01*
X014841Y019251D02*
X014702Y019251D01*
X014703Y019260D02*
X014848Y019260D01*
X014855Y019269D02*
X014705Y019269D01*
X014706Y019277D02*
X014865Y019277D01*
X014877Y019286D02*
X014708Y019286D01*
X014710Y019294D02*
X014891Y019294D01*
X014913Y019303D02*
X014713Y019303D01*
X014716Y019311D02*
X014963Y019311D01*
X015097Y019311D02*
X015322Y019311D01*
X015325Y019303D02*
X015124Y019303D01*
X015143Y019294D02*
X015329Y019294D01*
X015332Y019286D02*
X015157Y019286D01*
X015168Y019277D02*
X015335Y019277D01*
X015336Y019269D02*
X015179Y019269D01*
X015187Y019260D02*
X015338Y019260D01*
X015339Y019251D02*
X015194Y019251D01*
X015201Y019243D02*
X015341Y019243D01*
X015342Y019234D02*
X015207Y019234D01*
X015212Y019226D02*
X015342Y019226D01*
X015342Y019217D02*
X015216Y019217D01*
X015219Y019209D02*
X015341Y019209D01*
X015341Y019200D02*
X015221Y019200D01*
X015223Y019192D02*
X015341Y019192D01*
X015341Y019183D02*
X015224Y019183D01*
X015225Y019175D02*
X015341Y019175D01*
X015341Y019166D02*
X015225Y019166D01*
X015224Y019158D02*
X015341Y019158D01*
X015339Y019149D02*
X015224Y019149D01*
X015223Y019140D02*
X015337Y019140D01*
X015334Y019132D02*
X015223Y019132D01*
X015222Y019123D02*
X015331Y019123D01*
X015327Y019115D02*
X015220Y019115D01*
X015217Y019106D02*
X015324Y019106D01*
X015320Y019098D02*
X015213Y019098D01*
X015206Y019089D02*
X015317Y019089D01*
X015312Y019081D02*
X015199Y019081D01*
X015174Y019055D02*
X015292Y019055D01*
X015282Y019046D02*
X015164Y019046D01*
X015151Y019038D02*
X015273Y019038D01*
X015264Y019029D02*
X015136Y019029D01*
X015113Y019021D02*
X015254Y019021D01*
X015248Y019012D02*
X014351Y019012D01*
X014359Y019004D02*
X015329Y019004D01*
X015327Y018995D02*
X014366Y018995D01*
X014374Y018987D02*
X015325Y018987D01*
X015324Y018978D02*
X014382Y018978D01*
X014389Y018970D02*
X015322Y018970D01*
X015321Y018961D02*
X014397Y018961D01*
X014405Y018952D02*
X015319Y018952D01*
X015317Y018944D02*
X014412Y018944D01*
X014420Y018935D02*
X015316Y018935D01*
X015314Y018927D02*
X014428Y018927D01*
X014436Y018918D02*
X015312Y018918D01*
X015311Y018910D02*
X014443Y018910D01*
X014451Y018901D02*
X015309Y018901D01*
X015308Y018893D02*
X014459Y018893D01*
X014466Y018884D02*
X015306Y018884D01*
X015304Y018876D02*
X014474Y018876D01*
X014482Y018867D02*
X015303Y018867D01*
X015301Y018859D02*
X014490Y018859D01*
X014719Y019320D02*
X015318Y019320D01*
X015313Y019328D02*
X014723Y019328D01*
X014728Y019337D02*
X015308Y019337D01*
X015303Y019345D02*
X014732Y019345D01*
X014737Y019354D02*
X015298Y019354D01*
X015291Y019363D02*
X014743Y019363D01*
X014750Y019371D02*
X015284Y019371D01*
X015278Y019380D02*
X014756Y019380D01*
X014764Y019388D02*
X015271Y019388D01*
X015261Y019397D02*
X014774Y019397D01*
X014783Y019405D02*
X015251Y019405D01*
X015174Y019448D02*
X014853Y019448D01*
X014833Y019439D02*
X014787Y019409D01*
X014873Y019457D02*
X015147Y019457D01*
X015120Y019465D02*
X014901Y019465D01*
X014937Y019474D02*
X015065Y019474D01*
X015140Y019556D02*
X015141Y019555D01*
X015141Y019720D01*
X015141Y019722D01*
X015143Y019722D01*
X015165Y019725D01*
X015185Y019732D01*
X015203Y019745D01*
X015218Y019761D01*
X015229Y019780D01*
X015236Y019803D01*
X015238Y019827D01*
X015236Y019881D01*
X015233Y019896D01*
X015228Y019911D01*
X015220Y019924D01*
X015210Y019935D01*
X015198Y019943D01*
X015185Y019949D01*
X015163Y019954D01*
X015141Y019954D01*
X015120Y019949D01*
X015115Y019947D01*
X015111Y019944D01*
X015100Y019932D01*
X015090Y019914D01*
X015083Y019895D01*
X015074Y019843D01*
X015065Y019756D01*
X015054Y019696D01*
X014702Y019696D01*
X014700Y019704D02*
X014856Y019704D01*
X014853Y019705D02*
X014866Y019702D01*
X014890Y019702D01*
X014914Y019706D01*
X014936Y019715D01*
X014949Y019724D01*
X014959Y019735D01*
X014971Y019755D01*
X014971Y019756D02*
X015065Y019756D01*
X015066Y019764D02*
X014974Y019764D01*
X014977Y019773D02*
X015067Y019773D01*
X015067Y019781D02*
X014980Y019781D01*
X014979Y019776D02*
X014983Y019798D01*
X014989Y019855D01*
X014996Y019894D01*
X015007Y019932D01*
X015011Y019940D01*
X015017Y019947D01*
X015025Y019952D01*
X015134Y019952D01*
X015110Y019944D02*
X015014Y019944D01*
X015008Y019935D02*
X015103Y019935D01*
X015097Y019926D02*
X015005Y019926D01*
X015003Y019918D02*
X015092Y019918D01*
X015088Y019909D02*
X015000Y019909D01*
X014997Y019901D02*
X015085Y019901D01*
X015082Y019892D02*
X014995Y019892D01*
X014994Y019884D02*
X015081Y019884D01*
X015079Y019875D02*
X014992Y019875D01*
X014991Y019867D02*
X015078Y019867D01*
X015076Y019858D02*
X014989Y019858D01*
X014988Y019850D02*
X015075Y019850D01*
X015074Y019841D02*
X014987Y019841D01*
X014986Y019832D02*
X015073Y019832D01*
X015072Y019824D02*
X014986Y019824D01*
X014985Y019815D02*
X015071Y019815D01*
X015070Y019807D02*
X014984Y019807D01*
X014983Y019798D02*
X015069Y019798D01*
X015068Y019790D02*
X014981Y019790D01*
X014979Y019776D02*
X014971Y019755D01*
X014966Y019747D02*
X015063Y019747D01*
X015062Y019738D02*
X014961Y019738D01*
X014954Y019730D02*
X015060Y019730D01*
X015059Y019721D02*
X014945Y019721D01*
X014930Y019713D02*
X015057Y019713D01*
X015056Y019704D02*
X014904Y019704D01*
X014853Y019705D02*
X014841Y019711D01*
X014830Y019719D01*
X014817Y019734D01*
X014809Y019752D01*
X014805Y019771D01*
X014803Y019832D01*
X014809Y019874D01*
X014814Y019888D01*
X014822Y019900D01*
X014851Y019930D01*
X014860Y019936D01*
X014871Y019941D01*
X014878Y019943D01*
X014921Y019951D01*
X014964Y019954D01*
X014997Y019954D01*
X014997Y020115D01*
X014826Y020114D01*
X014773Y020118D01*
X014721Y020132D01*
X014713Y020135D01*
X014713Y019976D01*
X014713Y019974D01*
X014713Y019973D01*
X014715Y019972D01*
X014726Y019969D01*
X014767Y019960D01*
X014769Y019959D01*
X014771Y019957D01*
X014772Y019955D01*
X014771Y019952D01*
X014932Y019952D01*
X014880Y019944D02*
X014764Y019944D01*
X014770Y019950D02*
X014771Y019952D01*
X014770Y019950D02*
X014742Y019917D01*
X014721Y019880D01*
X014707Y019839D01*
X014697Y019775D01*
X014699Y019711D01*
X014711Y019657D01*
X014735Y019607D01*
X014748Y019589D01*
X014765Y019575D01*
X014784Y019563D01*
X014823Y019548D01*
X014864Y019541D01*
X014906Y019541D01*
X014943Y019549D01*
X014977Y019566D01*
X015001Y019586D01*
X015020Y019610D01*
X015035Y019637D01*
X015054Y019696D01*
X015051Y019687D02*
X014704Y019687D01*
X014706Y019679D02*
X015048Y019679D01*
X015046Y019670D02*
X014708Y019670D01*
X014710Y019662D02*
X015043Y019662D01*
X015040Y019653D02*
X014713Y019653D01*
X014717Y019644D02*
X015037Y019644D01*
X015034Y019636D02*
X014721Y019636D01*
X014725Y019627D02*
X015030Y019627D01*
X015025Y019619D02*
X014729Y019619D01*
X014733Y019610D02*
X015021Y019610D01*
X015014Y019602D02*
X014739Y019602D01*
X014745Y019593D02*
X015007Y019593D01*
X015000Y019585D02*
X014754Y019585D01*
X014763Y019576D02*
X014989Y019576D01*
X014979Y019568D02*
X014776Y019568D01*
X014794Y019559D02*
X014963Y019559D01*
X014946Y019551D02*
X014817Y019551D01*
X014858Y019542D02*
X014910Y019542D01*
X014838Y019713D02*
X014699Y019713D01*
X014699Y019721D02*
X014828Y019721D01*
X014821Y019730D02*
X014698Y019730D01*
X014698Y019738D02*
X014815Y019738D01*
X014811Y019747D02*
X014698Y019747D01*
X014698Y019756D02*
X014808Y019756D01*
X014806Y019764D02*
X014698Y019764D01*
X014697Y019773D02*
X014805Y019773D01*
X014804Y019781D02*
X014698Y019781D01*
X014699Y019790D02*
X014804Y019790D01*
X014804Y019798D02*
X014701Y019798D01*
X014702Y019807D02*
X014804Y019807D01*
X014803Y019815D02*
X014703Y019815D01*
X014705Y019824D02*
X014803Y019824D01*
X014803Y019832D02*
X014706Y019832D01*
X014707Y019841D02*
X014804Y019841D01*
X014805Y019850D02*
X014710Y019850D01*
X014713Y019858D02*
X014807Y019858D01*
X014808Y019867D02*
X014716Y019867D01*
X014719Y019875D02*
X014809Y019875D01*
X014813Y019884D02*
X014723Y019884D01*
X014728Y019892D02*
X014817Y019892D01*
X014823Y019901D02*
X014733Y019901D01*
X014737Y019909D02*
X014831Y019909D01*
X014839Y019918D02*
X014742Y019918D01*
X014750Y019926D02*
X014847Y019926D01*
X014858Y019935D02*
X014757Y019935D01*
X014764Y019961D02*
X014997Y019961D01*
X015001Y019961D02*
X015332Y019961D01*
X015334Y019954D02*
X015343Y019886D01*
X015343Y019817D01*
X015335Y019748D01*
X015322Y019700D01*
X015301Y019654D01*
X015278Y019622D01*
X015250Y019595D01*
X015216Y019574D01*
X015179Y019561D01*
X015140Y019556D01*
X015141Y019559D02*
X015162Y019559D01*
X015141Y019568D02*
X015196Y019568D01*
X015219Y019576D02*
X015141Y019576D01*
X015141Y019585D02*
X015233Y019585D01*
X015247Y019593D02*
X015141Y019593D01*
X015141Y019602D02*
X015257Y019602D01*
X015266Y019610D02*
X015141Y019610D01*
X015141Y019619D02*
X015275Y019619D01*
X015282Y019627D02*
X015141Y019627D01*
X015141Y019636D02*
X015288Y019636D01*
X015294Y019644D02*
X015141Y019644D01*
X015141Y019653D02*
X015300Y019653D01*
X015304Y019662D02*
X015141Y019662D01*
X015141Y019670D02*
X015308Y019670D01*
X015312Y019679D02*
X015141Y019679D01*
X015141Y019687D02*
X015316Y019687D01*
X015320Y019696D02*
X015141Y019696D01*
X015141Y019704D02*
X015323Y019704D01*
X015325Y019713D02*
X015141Y019713D01*
X015141Y019721D02*
X015328Y019721D01*
X015330Y019730D02*
X015179Y019730D01*
X015194Y019738D02*
X015332Y019738D01*
X015335Y019747D02*
X015206Y019747D01*
X015213Y019756D02*
X015336Y019756D01*
X015337Y019764D02*
X015220Y019764D01*
X015225Y019773D02*
X015338Y019773D01*
X015339Y019781D02*
X015229Y019781D01*
X015232Y019790D02*
X015340Y019790D01*
X015341Y019798D02*
X015234Y019798D01*
X015236Y019807D02*
X015342Y019807D01*
X015343Y019815D02*
X015237Y019815D01*
X015238Y019824D02*
X015343Y019824D01*
X015343Y019832D02*
X015238Y019832D01*
X015237Y019841D02*
X015343Y019841D01*
X015343Y019850D02*
X015237Y019850D01*
X015237Y019858D02*
X015343Y019858D01*
X015343Y019867D02*
X015236Y019867D01*
X015236Y019875D02*
X015343Y019875D01*
X015343Y019884D02*
X015235Y019884D01*
X015234Y019892D02*
X015342Y019892D01*
X015341Y019901D02*
X015232Y019901D01*
X015229Y019909D02*
X015340Y019909D01*
X015339Y019918D02*
X015224Y019918D01*
X015218Y019926D02*
X015337Y019926D01*
X015336Y019935D02*
X015210Y019935D01*
X015197Y019944D02*
X015335Y019944D01*
X015334Y019952D02*
X015171Y019952D01*
X015025Y019954D02*
X015001Y019954D01*
X015001Y020114D01*
X015191Y020114D01*
X015220Y020110D01*
X015247Y020100D01*
X015271Y020083D01*
X015290Y020061D01*
X015317Y020010D01*
X015334Y019954D01*
X015329Y019969D02*
X015001Y019969D01*
X014997Y019969D02*
X014726Y019969D01*
X014713Y019978D02*
X014997Y019978D01*
X015001Y019978D02*
X015327Y019978D01*
X015324Y019986D02*
X015001Y019986D01*
X014997Y019986D02*
X014713Y019986D01*
X014713Y019995D02*
X014997Y019995D01*
X015001Y019995D02*
X015322Y019995D01*
X015319Y020003D02*
X015001Y020003D01*
X014997Y020003D02*
X014713Y020003D01*
X014713Y020012D02*
X014997Y020012D01*
X015001Y020012D02*
X015316Y020012D01*
X015311Y020020D02*
X015001Y020020D01*
X014997Y020020D02*
X014713Y020020D01*
X014713Y020029D02*
X014997Y020029D01*
X015001Y020029D02*
X015307Y020029D01*
X015302Y020037D02*
X015001Y020037D01*
X014997Y020037D02*
X014713Y020037D01*
X014713Y020046D02*
X014997Y020046D01*
X015001Y020046D02*
X015298Y020046D01*
X015293Y020055D02*
X015001Y020055D01*
X014997Y020055D02*
X014713Y020055D01*
X014713Y020063D02*
X014997Y020063D01*
X015001Y020063D02*
X015288Y020063D01*
X015281Y020072D02*
X015001Y020072D01*
X014997Y020072D02*
X014713Y020072D01*
X014713Y020080D02*
X014997Y020080D01*
X015001Y020080D02*
X015273Y020080D01*
X015263Y020089D02*
X015001Y020089D01*
X014997Y020089D02*
X014713Y020089D01*
X014713Y020097D02*
X014997Y020097D01*
X015001Y020097D02*
X015251Y020097D01*
X015232Y020106D02*
X015001Y020106D01*
X014997Y020106D02*
X014713Y020106D01*
X014713Y020114D02*
X014822Y020114D01*
X014881Y020114D02*
X014997Y020114D01*
X015025Y019954D02*
X015025Y019952D01*
X014755Y020123D02*
X014713Y020123D01*
X014713Y020131D02*
X014723Y020131D01*
X014713Y020221D02*
X014713Y020385D01*
X015021Y020385D01*
X015055Y020388D01*
X015088Y020396D01*
X015120Y020411D01*
X015148Y020432D01*
X015171Y020459D01*
X015182Y020479D01*
X015189Y020500D01*
X015193Y020522D01*
X015193Y020583D01*
X015188Y020607D01*
X015187Y020613D01*
X015187Y020614D01*
X015339Y020614D01*
X015342Y020560D01*
X015339Y020532D01*
X015330Y020506D01*
X015316Y020482D01*
X015293Y020447D01*
X015281Y020432D01*
X015266Y020419D01*
X015225Y020392D01*
X015213Y020384D01*
X015211Y020378D01*
X015213Y020374D01*
X015326Y020374D01*
X015299Y020222D01*
X014713Y020221D01*
X014713Y020225D02*
X015299Y020225D01*
X015301Y020234D02*
X014713Y020234D01*
X014713Y020243D02*
X015302Y020243D01*
X015304Y020251D02*
X014713Y020251D01*
X014713Y020260D02*
X015306Y020260D01*
X015307Y020268D02*
X014713Y020268D01*
X014713Y020277D02*
X015309Y020277D01*
X015310Y020285D02*
X014713Y020285D01*
X014713Y020294D02*
X015312Y020294D01*
X015313Y020302D02*
X014713Y020302D01*
X014713Y020311D02*
X015315Y020311D01*
X015316Y020319D02*
X014713Y020319D01*
X014713Y020328D02*
X015318Y020328D01*
X015319Y020336D02*
X014713Y020336D01*
X014713Y020345D02*
X015321Y020345D01*
X015322Y020354D02*
X014713Y020354D01*
X014713Y020362D02*
X015324Y020362D01*
X015325Y020371D02*
X014713Y020371D01*
X014713Y020379D02*
X015211Y020379D01*
X015218Y020388D02*
X015052Y020388D01*
X015088Y020396D02*
X015231Y020396D01*
X015244Y020405D02*
X015107Y020405D01*
X015124Y020413D02*
X015257Y020413D01*
X015269Y020422D02*
X015135Y020422D01*
X015146Y020430D02*
X015280Y020430D01*
X015287Y020439D02*
X015154Y020439D01*
X015161Y020448D02*
X015293Y020448D01*
X015299Y020456D02*
X015168Y020456D01*
X015174Y020465D02*
X015304Y020465D01*
X015310Y020473D02*
X015179Y020473D01*
X015183Y020482D02*
X015316Y020482D01*
X015321Y020490D02*
X015186Y020490D01*
X015189Y020499D02*
X015326Y020499D01*
X015330Y020507D02*
X015190Y020507D01*
X015192Y020516D02*
X015333Y020516D01*
X015336Y020524D02*
X015193Y020524D01*
X015193Y020533D02*
X015339Y020533D01*
X015340Y020542D02*
X015193Y020542D01*
X015193Y020550D02*
X015341Y020550D01*
X015342Y020559D02*
X015193Y020559D01*
X015193Y020567D02*
X015341Y020567D01*
X015341Y020576D02*
X015193Y020576D01*
X015193Y020584D02*
X015341Y020584D01*
X015340Y020593D02*
X015191Y020593D01*
X015189Y020601D02*
X015340Y020601D01*
X015339Y020610D02*
X015187Y020610D01*
X015102Y020851D02*
X015326Y021075D01*
X015326Y021259D01*
X015104Y021032D01*
X014711Y021294D01*
X014712Y021094D01*
X014989Y020926D01*
X015177Y020926D01*
X015185Y020935D02*
X014975Y020935D01*
X014961Y020943D02*
X015194Y020943D01*
X015202Y020952D02*
X014947Y020952D01*
X014933Y020960D02*
X015211Y020960D01*
X015220Y020969D02*
X014918Y020969D01*
X014904Y020977D02*
X015228Y020977D01*
X015237Y020986D02*
X014890Y020986D01*
X014876Y020994D02*
X015245Y020994D01*
X015254Y021003D02*
X014862Y021003D01*
X014848Y021011D02*
X015262Y021011D01*
X015271Y021020D02*
X014834Y021020D01*
X014820Y021029D02*
X015279Y021029D01*
X015288Y021037D02*
X015109Y021037D01*
X015117Y021046D02*
X015296Y021046D01*
X015305Y021054D02*
X015125Y021054D01*
X015134Y021063D02*
X015314Y021063D01*
X015322Y021071D02*
X015142Y021071D01*
X015151Y021080D02*
X015326Y021080D01*
X015326Y021088D02*
X015159Y021088D01*
X015167Y021097D02*
X015326Y021097D01*
X015326Y021105D02*
X015176Y021105D01*
X015184Y021114D02*
X015326Y021114D01*
X015326Y021122D02*
X015192Y021122D01*
X015201Y021131D02*
X015326Y021131D01*
X015326Y021140D02*
X015209Y021140D01*
X015217Y021148D02*
X015326Y021148D01*
X015326Y021157D02*
X015226Y021157D01*
X015234Y021165D02*
X015326Y021165D01*
X015326Y021174D02*
X015242Y021174D01*
X015251Y021182D02*
X015326Y021182D01*
X015326Y021191D02*
X015259Y021191D01*
X015268Y021199D02*
X015326Y021199D01*
X015326Y021208D02*
X015276Y021208D01*
X015284Y021216D02*
X015326Y021216D01*
X015326Y021225D02*
X015293Y021225D01*
X015301Y021234D02*
X015326Y021234D01*
X015326Y021242D02*
X015309Y021242D01*
X015318Y021251D02*
X015326Y021251D01*
X015274Y021302D02*
X015221Y021302D01*
X015221Y021310D02*
X015282Y021310D01*
X015291Y021319D02*
X015221Y021319D01*
X015221Y021328D02*
X015299Y021328D01*
X015308Y021336D02*
X015221Y021336D01*
X015221Y021345D02*
X015316Y021345D01*
X015325Y021353D02*
X015221Y021353D01*
X015221Y021362D02*
X015327Y021362D01*
X015327Y021355D02*
X015327Y021409D01*
X015345Y021409D01*
X015429Y021416D01*
X015451Y021422D01*
X015472Y021432D01*
X015491Y021445D01*
X015519Y021474D01*
X015540Y021508D01*
X015555Y021546D01*
X015562Y021586D01*
X015562Y021647D01*
X015559Y021699D01*
X015559Y021700D01*
X015440Y021700D01*
X015440Y021697D01*
X015441Y021686D01*
X015444Y021650D01*
X015441Y021613D01*
X015437Y021601D01*
X015562Y021601D01*
X015562Y021609D02*
X015440Y021609D01*
X015437Y021601D02*
X015429Y021590D01*
X015419Y021582D01*
X015401Y021575D01*
X015382Y021572D01*
X015327Y021572D01*
X015327Y021616D01*
X015327Y021689D01*
X015222Y021689D01*
X015222Y021571D01*
X014709Y021571D01*
X014709Y021407D01*
X015213Y021407D01*
X015221Y021407D01*
X015222Y021250D01*
X015327Y021355D01*
X015327Y021370D02*
X015221Y021370D01*
X015221Y021379D02*
X015327Y021379D01*
X015327Y021387D02*
X015221Y021387D01*
X015221Y021396D02*
X015327Y021396D01*
X015327Y021404D02*
X015221Y021404D01*
X015222Y021293D02*
X015265Y021293D01*
X015257Y021285D02*
X015222Y021285D01*
X015222Y021276D02*
X015248Y021276D01*
X015240Y021268D02*
X015222Y021268D01*
X015222Y021259D02*
X015231Y021259D01*
X015222Y021251D02*
X015222Y021251D01*
X015392Y021413D02*
X014709Y021413D01*
X014709Y021421D02*
X015450Y021421D01*
X015469Y021430D02*
X014709Y021430D01*
X014709Y021439D02*
X015482Y021439D01*
X015493Y021447D02*
X014709Y021447D01*
X014709Y021456D02*
X015501Y021456D01*
X015509Y021464D02*
X014709Y021464D01*
X014709Y021473D02*
X015517Y021473D01*
X015523Y021481D02*
X014709Y021481D01*
X014709Y021490D02*
X015529Y021490D01*
X015534Y021498D02*
X014709Y021498D01*
X014709Y021507D02*
X015539Y021507D01*
X015543Y021515D02*
X014709Y021515D01*
X014709Y021524D02*
X015546Y021524D01*
X015550Y021533D02*
X014709Y021533D01*
X014709Y021541D02*
X015553Y021541D01*
X015556Y021550D02*
X014709Y021550D01*
X014709Y021558D02*
X015557Y021558D01*
X015559Y021567D02*
X014709Y021567D01*
X014801Y021772D02*
X015329Y021772D01*
X015329Y021780D02*
X014783Y021780D01*
X014780Y021782D02*
X014745Y021808D01*
X014736Y021818D01*
X014715Y021854D01*
X014702Y021892D01*
X014696Y021933D01*
X014697Y021992D01*
X014706Y022050D01*
X014709Y022060D01*
X014714Y022070D01*
X014740Y022107D01*
X014771Y022139D01*
X014806Y022167D01*
X014806Y022168D01*
X014712Y022168D01*
X014712Y022326D01*
X015327Y022326D01*
X015327Y022160D01*
X015000Y022160D01*
X014951Y022157D01*
X014903Y022148D01*
X014880Y022139D01*
X014771Y022139D01*
X014763Y022131D02*
X014867Y022131D01*
X014860Y022126D02*
X014844Y022108D01*
X014832Y022087D01*
X014823Y022059D01*
X014820Y022029D01*
X014824Y022000D01*
X014833Y021972D01*
X014842Y021956D01*
X014855Y021941D01*
X014870Y021930D01*
X014901Y021916D01*
X014935Y021910D01*
X015329Y021910D01*
X015329Y021747D01*
X014904Y021747D01*
X014861Y021751D01*
X014819Y021763D01*
X014780Y021782D01*
X014771Y021789D02*
X015329Y021789D01*
X015329Y021797D02*
X014759Y021797D01*
X014748Y021806D02*
X015329Y021806D01*
X015329Y021814D02*
X014739Y021814D01*
X014733Y021823D02*
X015329Y021823D01*
X015329Y021832D02*
X014728Y021832D01*
X014723Y021840D02*
X015329Y021840D01*
X015329Y021849D02*
X014718Y021849D01*
X014714Y021857D02*
X015329Y021857D01*
X015329Y021866D02*
X014711Y021866D01*
X014708Y021874D02*
X015329Y021874D01*
X015329Y021883D02*
X014705Y021883D01*
X014702Y021891D02*
X015329Y021891D01*
X015329Y021900D02*
X014701Y021900D01*
X014699Y021908D02*
X015329Y021908D01*
X015329Y021763D02*
X014818Y021763D01*
X014848Y021755D02*
X015329Y021755D01*
X015327Y021686D02*
X015222Y021686D01*
X015222Y021678D02*
X015327Y021678D01*
X015327Y021669D02*
X015222Y021669D01*
X015222Y021661D02*
X015327Y021661D01*
X015327Y021652D02*
X015222Y021652D01*
X015222Y021644D02*
X015327Y021644D01*
X015327Y021635D02*
X015222Y021635D01*
X015222Y021627D02*
X015327Y021627D01*
X015327Y021618D02*
X015222Y021618D01*
X015222Y021609D02*
X015327Y021609D01*
X015327Y021601D02*
X015222Y021601D01*
X015222Y021592D02*
X015327Y021592D01*
X015327Y021584D02*
X015222Y021584D01*
X015222Y021575D02*
X015327Y021575D01*
X015403Y021575D02*
X015560Y021575D01*
X015561Y021584D02*
X015421Y021584D01*
X015431Y021592D02*
X015562Y021592D01*
X015562Y021618D02*
X015441Y021618D01*
X015442Y021627D02*
X015562Y021627D01*
X015562Y021635D02*
X015443Y021635D01*
X015444Y021644D02*
X015562Y021644D01*
X015562Y021652D02*
X015444Y021652D01*
X015443Y021661D02*
X015561Y021661D01*
X015561Y021669D02*
X015442Y021669D01*
X015442Y021678D02*
X015560Y021678D01*
X015560Y021686D02*
X015441Y021686D01*
X015440Y021695D02*
X015559Y021695D01*
X015795Y021584D02*
X016321Y021584D01*
X016320Y021592D02*
X015801Y021592D01*
X015795Y021584D02*
X015827Y021630D01*
X015865Y021670D01*
X015909Y021705D01*
X015975Y021742D01*
X016047Y021767D01*
X016122Y021778D01*
X016198Y021776D01*
X016239Y021768D01*
X016278Y021754D01*
X016315Y021734D01*
X016360Y021698D01*
X016396Y021654D01*
X016361Y021654D01*
X016355Y021653D01*
X016350Y021651D01*
X016335Y021639D01*
X016325Y021624D01*
X016322Y021616D01*
X016319Y021594D01*
X016324Y021571D01*
X016334Y021551D01*
X016360Y021515D01*
X016374Y021498D01*
X015761Y021498D01*
X015758Y021490D02*
X016384Y021490D01*
X016391Y021484D02*
X016410Y021473D01*
X016430Y021464D01*
X016443Y021461D01*
X016456Y021462D01*
X016478Y021469D01*
X016497Y021481D01*
X016573Y021481D01*
X016572Y021486D02*
X016576Y021451D01*
X016573Y021417D01*
X016564Y021384D01*
X016549Y021353D01*
X016267Y021353D01*
X016276Y021345D02*
X016543Y021345D01*
X016549Y021353D02*
X016527Y021322D01*
X016501Y021295D01*
X016477Y021278D01*
X016450Y021268D01*
X016395Y021268D01*
X016392Y021268D02*
X016365Y021279D01*
X016296Y021326D01*
X016235Y021383D01*
X016217Y021398D01*
X016196Y021408D01*
X016173Y021412D01*
X016150Y021411D01*
X016128Y021403D01*
X016109Y021390D01*
X016094Y021372D01*
X016082Y021350D01*
X016074Y021326D01*
X016070Y021301D01*
X016071Y021272D01*
X016080Y021244D01*
X016095Y021219D01*
X016109Y021206D01*
X016126Y021197D01*
X016143Y021193D01*
X016161Y021193D01*
X016179Y021197D01*
X016186Y021201D01*
X016191Y021206D01*
X016215Y021239D01*
X016218Y021245D01*
X016220Y021252D01*
X016219Y021259D01*
X016222Y021240D01*
X016225Y021203D01*
X016222Y021166D01*
X016215Y021139D01*
X016215Y021140D02*
X015580Y021140D01*
X015590Y021148D02*
X016217Y021148D01*
X016219Y021157D02*
X015600Y021157D01*
X015609Y021165D02*
X016222Y021165D01*
X016222Y021174D02*
X015619Y021174D01*
X015628Y021182D02*
X016223Y021182D01*
X016224Y021191D02*
X015638Y021191D01*
X015648Y021199D02*
X016121Y021199D01*
X016107Y021208D02*
X015657Y021208D01*
X015667Y021216D02*
X016098Y021216D01*
X016091Y021225D02*
X015676Y021225D01*
X015686Y021234D02*
X016086Y021234D01*
X016081Y021242D02*
X015694Y021242D01*
X015689Y021236D02*
X015720Y021270D01*
X015744Y021310D01*
X015749Y021325D01*
X015752Y021340D01*
X015752Y021430D01*
X016574Y021430D01*
X016574Y021421D02*
X015752Y021421D01*
X015752Y021413D02*
X016572Y021413D01*
X016570Y021404D02*
X016204Y021404D01*
X016220Y021396D02*
X016568Y021396D01*
X016565Y021387D02*
X016230Y021387D01*
X016239Y021379D02*
X016562Y021379D01*
X016557Y021370D02*
X016248Y021370D01*
X016257Y021362D02*
X016553Y021362D01*
X016537Y021336D02*
X016285Y021336D01*
X016294Y021328D02*
X016530Y021328D01*
X016524Y021319D02*
X016306Y021319D01*
X016318Y021310D02*
X016515Y021310D01*
X016507Y021302D02*
X016331Y021302D01*
X016344Y021293D02*
X016499Y021293D01*
X016487Y021285D02*
X016356Y021285D01*
X016372Y021276D02*
X016472Y021276D01*
X016450Y021268D02*
X016421Y021264D01*
X016392Y021268D01*
X016221Y021242D02*
X016216Y021242D01*
X016219Y021251D02*
X016220Y021251D01*
X016222Y021234D02*
X016211Y021234D01*
X016205Y021225D02*
X016223Y021225D01*
X016224Y021216D02*
X016198Y021216D01*
X016192Y021208D02*
X016224Y021208D01*
X016224Y021199D02*
X016183Y021199D01*
X016215Y021139D02*
X016202Y021113D01*
X016184Y021091D01*
X016163Y021072D01*
X016134Y021056D01*
X016103Y021047D01*
X016070Y021044D01*
X015473Y021044D01*
X015689Y021236D01*
X015702Y021251D02*
X016078Y021251D01*
X016075Y021259D02*
X015710Y021259D01*
X015718Y021268D02*
X016073Y021268D01*
X016071Y021276D02*
X015724Y021276D01*
X015729Y021285D02*
X016071Y021285D01*
X016070Y021293D02*
X015734Y021293D01*
X015739Y021302D02*
X016070Y021302D01*
X016071Y021310D02*
X015744Y021310D01*
X015747Y021319D02*
X016073Y021319D01*
X016074Y021328D02*
X015750Y021328D01*
X015751Y021336D02*
X016077Y021336D01*
X016080Y021345D02*
X015752Y021345D01*
X015752Y021353D02*
X016084Y021353D01*
X016088Y021362D02*
X015752Y021362D01*
X015752Y021370D02*
X016093Y021370D01*
X016100Y021379D02*
X015752Y021379D01*
X015752Y021387D02*
X016107Y021387D01*
X016118Y021396D02*
X015752Y021396D01*
X015752Y021404D02*
X016133Y021404D01*
X016335Y021550D02*
X015778Y021550D01*
X015782Y021558D02*
X016330Y021558D01*
X016326Y021567D02*
X015786Y021567D01*
X015791Y021575D02*
X016323Y021575D01*
X016320Y021601D02*
X015807Y021601D01*
X015813Y021609D02*
X016321Y021609D01*
X016323Y021618D02*
X015819Y021618D01*
X015825Y021627D02*
X016327Y021627D01*
X016332Y021635D02*
X015832Y021635D01*
X015840Y021644D02*
X016341Y021644D01*
X016353Y021652D02*
X015848Y021652D01*
X015856Y021661D02*
X016390Y021661D01*
X016383Y021669D02*
X015864Y021669D01*
X015875Y021678D02*
X016376Y021678D01*
X016369Y021686D02*
X015885Y021686D01*
X015896Y021695D02*
X016362Y021695D01*
X016353Y021703D02*
X015907Y021703D01*
X015921Y021712D02*
X016343Y021712D01*
X016332Y021721D02*
X015936Y021721D01*
X015951Y021729D02*
X016321Y021729D01*
X016308Y021738D02*
X015967Y021738D01*
X015986Y021746D02*
X016292Y021746D01*
X016276Y021755D02*
X016011Y021755D01*
X016036Y021763D02*
X016252Y021763D01*
X016219Y021772D02*
X016078Y021772D01*
X015795Y021584D02*
X015771Y021536D01*
X015757Y021484D01*
X015752Y021430D01*
X015753Y021439D02*
X016575Y021439D01*
X016576Y021447D02*
X015753Y021447D01*
X015754Y021456D02*
X016575Y021456D01*
X016575Y021464D02*
X016463Y021464D01*
X016484Y021473D02*
X016574Y021473D01*
X016572Y021486D02*
X016564Y021521D01*
X016560Y021530D01*
X016554Y021544D01*
X016545Y021564D01*
X016532Y021581D01*
X016531Y021582D01*
X016531Y021582D01*
X016531Y021558D01*
X016529Y021537D01*
X016523Y021517D01*
X016512Y021497D01*
X016497Y021481D01*
X016505Y021490D02*
X016572Y021490D01*
X016569Y021498D02*
X016513Y021498D01*
X016517Y021507D02*
X016567Y021507D01*
X016565Y021515D02*
X016522Y021515D01*
X016525Y021524D02*
X016563Y021524D01*
X016559Y021533D02*
X016527Y021533D01*
X016529Y021541D02*
X016555Y021541D01*
X016551Y021550D02*
X016530Y021550D01*
X016531Y021558D02*
X016548Y021558D01*
X016543Y021567D02*
X016531Y021567D01*
X016531Y021575D02*
X016536Y021575D01*
X016429Y021464D02*
X015755Y021464D01*
X015756Y021473D02*
X016409Y021473D01*
X016395Y021481D02*
X015756Y021481D01*
X015763Y021507D02*
X016367Y021507D01*
X016374Y021498D02*
X016391Y021484D01*
X016360Y021515D02*
X015766Y021515D01*
X015768Y021524D02*
X016353Y021524D01*
X016347Y021533D02*
X015770Y021533D01*
X015774Y021541D02*
X016341Y021541D01*
X016211Y021131D02*
X015571Y021131D01*
X015561Y021122D02*
X016207Y021122D01*
X016202Y021114D02*
X015551Y021114D01*
X015542Y021105D02*
X016196Y021105D01*
X016189Y021097D02*
X015532Y021097D01*
X015523Y021088D02*
X016182Y021088D01*
X016172Y021080D02*
X015513Y021080D01*
X015503Y021071D02*
X016161Y021071D01*
X016146Y021063D02*
X015494Y021063D01*
X015484Y021054D02*
X016127Y021054D01*
X016088Y021046D02*
X015475Y021046D01*
X015564Y020851D02*
X015102Y020851D01*
X015108Y020858D02*
X014927Y020858D01*
X014923Y020853D02*
X014713Y020853D01*
X014708Y020853D01*
X014708Y020690D01*
X014710Y020688D01*
X015471Y020688D01*
X015564Y020851D01*
X015563Y020849D02*
X014708Y020849D01*
X014708Y020841D02*
X015558Y020841D01*
X015553Y020832D02*
X014708Y020832D01*
X014708Y020823D02*
X015548Y020823D01*
X015543Y020815D02*
X014708Y020815D01*
X014708Y020806D02*
X015538Y020806D01*
X015534Y020798D02*
X014708Y020798D01*
X014708Y020789D02*
X015529Y020789D01*
X015524Y020781D02*
X014708Y020781D01*
X014708Y020772D02*
X015519Y020772D01*
X015514Y020764D02*
X014708Y020764D01*
X014708Y020755D02*
X015509Y020755D01*
X015504Y020747D02*
X014708Y020747D01*
X014708Y020738D02*
X015499Y020738D01*
X015494Y020729D02*
X014708Y020729D01*
X014708Y020721D02*
X015490Y020721D01*
X015485Y020712D02*
X014708Y020712D01*
X014708Y020704D02*
X015480Y020704D01*
X015475Y020695D02*
X014708Y020695D01*
X014923Y020853D02*
X014992Y020924D01*
X014989Y020926D01*
X014985Y020917D02*
X015168Y020917D01*
X015160Y020909D02*
X014977Y020909D01*
X014969Y020900D02*
X015151Y020900D01*
X015143Y020892D02*
X014961Y020892D01*
X014952Y020883D02*
X015134Y020883D01*
X015126Y020875D02*
X014944Y020875D01*
X014936Y020866D02*
X015117Y020866D01*
X015096Y021037D02*
X014806Y021037D01*
X014792Y021046D02*
X015084Y021046D01*
X015071Y021054D02*
X014778Y021054D01*
X014764Y021063D02*
X015058Y021063D01*
X015045Y021071D02*
X014749Y021071D01*
X014735Y021080D02*
X015032Y021080D01*
X015019Y021088D02*
X014721Y021088D01*
X014712Y021097D02*
X015007Y021097D01*
X014994Y021105D02*
X014712Y021105D01*
X014712Y021114D02*
X014981Y021114D01*
X014968Y021122D02*
X014712Y021122D01*
X014712Y021131D02*
X014955Y021131D01*
X014943Y021140D02*
X014712Y021140D01*
X014712Y021148D02*
X014930Y021148D01*
X014917Y021157D02*
X014712Y021157D01*
X014711Y021165D02*
X014904Y021165D01*
X014891Y021174D02*
X014711Y021174D01*
X014711Y021182D02*
X014879Y021182D01*
X014866Y021191D02*
X014711Y021191D01*
X014711Y021199D02*
X014853Y021199D01*
X014840Y021208D02*
X014711Y021208D01*
X014711Y021216D02*
X014827Y021216D01*
X014814Y021225D02*
X014711Y021225D01*
X014711Y021234D02*
X014802Y021234D01*
X014789Y021242D02*
X014711Y021242D01*
X014711Y021251D02*
X014776Y021251D01*
X014763Y021259D02*
X014711Y021259D01*
X014711Y021268D02*
X014750Y021268D01*
X014738Y021276D02*
X014711Y021276D01*
X014711Y021285D02*
X014725Y021285D01*
X014712Y021293D02*
X014711Y021293D01*
X014698Y021917D02*
X014899Y021917D01*
X014880Y021926D02*
X014697Y021926D01*
X014696Y021934D02*
X014864Y021934D01*
X014854Y021943D02*
X014696Y021943D01*
X014696Y021951D02*
X014846Y021951D01*
X014840Y021960D02*
X014696Y021960D01*
X014697Y021968D02*
X014835Y021968D01*
X014831Y021977D02*
X014697Y021977D01*
X014697Y021985D02*
X014829Y021985D01*
X014826Y021994D02*
X014697Y021994D01*
X014699Y022002D02*
X014823Y022002D01*
X014823Y022011D02*
X014700Y022011D01*
X014701Y022020D02*
X014822Y022020D01*
X014821Y022028D02*
X014703Y022028D01*
X014704Y022037D02*
X014821Y022037D01*
X014822Y022045D02*
X014705Y022045D01*
X014707Y022054D02*
X014823Y022054D01*
X014824Y022062D02*
X014710Y022062D01*
X014714Y022071D02*
X014827Y022071D01*
X014830Y022079D02*
X014720Y022079D01*
X014726Y022088D02*
X014832Y022088D01*
X014837Y022096D02*
X014733Y022096D01*
X014739Y022105D02*
X014842Y022105D01*
X014849Y022114D02*
X014746Y022114D01*
X014754Y022122D02*
X014857Y022122D01*
X014860Y022126D02*
X014880Y022139D01*
X014902Y022148D02*
X014781Y022148D01*
X014792Y022156D02*
X014947Y022156D01*
X014803Y022165D02*
X015327Y022165D01*
X015327Y022173D02*
X014712Y022173D01*
X014712Y022182D02*
X015327Y022182D01*
X015327Y022190D02*
X014712Y022190D01*
X014712Y022199D02*
X015327Y022199D01*
X015327Y022207D02*
X014712Y022207D01*
X014712Y022216D02*
X015327Y022216D01*
X015327Y022225D02*
X014712Y022225D01*
X014712Y022233D02*
X015327Y022233D01*
X015327Y022242D02*
X014712Y022242D01*
X014712Y022250D02*
X015327Y022250D01*
X015327Y022259D02*
X014712Y022259D01*
X014712Y022267D02*
X015327Y022267D01*
X015327Y022276D02*
X014712Y022276D01*
X014712Y022284D02*
X015327Y022284D01*
X015327Y022293D02*
X014712Y022293D01*
X014712Y022301D02*
X015327Y022301D01*
X015327Y022310D02*
X014712Y022310D01*
X014712Y022319D02*
X015327Y022319D01*
X015328Y022424D02*
X014709Y022424D01*
X014709Y022590D01*
X015051Y022590D01*
X015078Y022590D01*
X015109Y022593D01*
X015140Y022602D01*
X015168Y022617D01*
X015191Y022638D01*
X015204Y022657D01*
X015212Y022678D01*
X015216Y022701D01*
X015218Y022745D01*
X015217Y022758D01*
X015214Y022771D01*
X015205Y022789D01*
X015192Y022805D01*
X015176Y022817D01*
X015150Y022830D01*
X015122Y022837D01*
X015093Y022840D01*
X014713Y022840D01*
X014713Y023001D01*
X015128Y023001D01*
X015172Y022997D01*
X015216Y022988D01*
X015244Y022977D01*
X015269Y022962D01*
X015292Y022943D01*
X015316Y022912D01*
X015333Y022876D01*
X015341Y022838D01*
X015343Y022759D01*
X015337Y022718D01*
X015322Y022678D01*
X015300Y022643D01*
X015283Y022625D01*
X015265Y022609D01*
X015250Y022598D01*
X015244Y022593D01*
X015242Y022590D01*
X015241Y022586D01*
X015241Y022583D01*
X015328Y022583D01*
X015328Y022424D01*
X015328Y022583D01*
X015241Y022583D01*
X015241Y022586D01*
X015241Y022583D02*
X014709Y022583D01*
X014709Y022590D02*
X014709Y022424D01*
X015328Y022424D01*
X015328Y022430D02*
X014709Y022430D01*
X014709Y022438D02*
X015328Y022438D01*
X015328Y022447D02*
X014709Y022447D01*
X014709Y022455D02*
X015328Y022455D01*
X015328Y022464D02*
X014709Y022464D01*
X014709Y022472D02*
X015328Y022472D01*
X015328Y022481D02*
X014709Y022481D01*
X014709Y022489D02*
X015328Y022489D01*
X015328Y022498D02*
X014709Y022498D01*
X014709Y022506D02*
X015328Y022506D01*
X015328Y022515D02*
X014709Y022515D01*
X014709Y022524D02*
X015328Y022524D01*
X015328Y022532D02*
X014709Y022532D01*
X014709Y022541D02*
X015328Y022541D01*
X015328Y022549D02*
X014709Y022549D01*
X014709Y022558D02*
X015328Y022558D01*
X015328Y022566D02*
X014709Y022566D01*
X014709Y022575D02*
X015328Y022575D01*
X015249Y022599D02*
X015243Y022594D01*
X015243Y022592D02*
X015096Y022592D01*
X015134Y022600D02*
X015253Y022600D01*
X015244Y022593D02*
X015242Y022590D01*
X015241Y022586D01*
X015265Y022609D02*
X015153Y022609D01*
X015168Y022618D02*
X015275Y022618D01*
X015285Y022626D02*
X015178Y022626D01*
X015187Y022635D02*
X015292Y022635D01*
X015300Y022643D02*
X015194Y022643D01*
X015200Y022652D02*
X015305Y022652D01*
X015311Y022660D02*
X015205Y022660D01*
X015209Y022669D02*
X015316Y022669D01*
X015321Y022677D02*
X015212Y022677D01*
X015214Y022686D02*
X015325Y022686D01*
X015328Y022694D02*
X015215Y022694D01*
X015216Y022703D02*
X015331Y022703D01*
X015334Y022712D02*
X015216Y022712D01*
X015217Y022720D02*
X015337Y022720D01*
X015338Y022729D02*
X015217Y022729D01*
X015218Y022737D02*
X015340Y022737D01*
X015341Y022746D02*
X015218Y022746D01*
X015217Y022754D02*
X015342Y022754D01*
X015343Y022763D02*
X015216Y022763D01*
X015214Y022771D02*
X015343Y022771D01*
X015342Y022780D02*
X015209Y022780D01*
X015205Y022788D02*
X015342Y022788D01*
X015342Y022797D02*
X015198Y022797D01*
X015191Y022806D02*
X015342Y022806D01*
X015341Y022814D02*
X015180Y022814D01*
X015340Y022838D02*
X015325Y022894D01*
X015291Y022942D01*
X015293Y022942D02*
X014713Y022942D01*
X014713Y022934D02*
X015299Y022934D01*
X015306Y022925D02*
X014713Y022925D01*
X014713Y022917D02*
X015313Y022917D01*
X015318Y022908D02*
X014713Y022908D01*
X014713Y022899D02*
X015322Y022899D01*
X015326Y022891D02*
X014713Y022891D01*
X014713Y022882D02*
X015330Y022882D01*
X015333Y022874D02*
X014713Y022874D01*
X014713Y022865D02*
X015335Y022865D01*
X015337Y022857D02*
X014713Y022857D01*
X014713Y022848D02*
X015339Y022848D01*
X015341Y022840D02*
X015097Y022840D01*
X015093Y022840D02*
X014713Y022840D01*
X014713Y023001D01*
X015128Y023001D01*
X015191Y022993D02*
X014713Y022993D01*
X014713Y022985D02*
X015224Y022985D01*
X015245Y022976D02*
X014713Y022976D01*
X014713Y022968D02*
X015260Y022968D01*
X015273Y022959D02*
X014713Y022959D01*
X014713Y022951D02*
X015283Y022951D01*
X015341Y022831D02*
X015144Y022831D01*
X015164Y022823D02*
X015341Y022823D01*
X015291Y022943D02*
X015215Y022988D01*
X015343Y022759D02*
X015330Y022697D01*
X015300Y022643D01*
X015216Y022988D02*
X015127Y023001D01*
X015140Y022602D02*
X015078Y022590D01*
X015051Y022590D02*
X014709Y022590D01*
X015343Y022759D02*
X015342Y022838D01*
X015300Y022642D02*
X015265Y022608D01*
X015218Y022745D02*
X015214Y022771D01*
X015214Y022770D02*
X015176Y022816D01*
X015191Y022638D02*
X015140Y022602D01*
X015176Y022817D02*
X015093Y022840D01*
X015216Y022702D02*
X015191Y022639D01*
X015083Y023338D02*
X014985Y023335D01*
X014937Y023341D01*
X014891Y023354D01*
X014847Y023374D01*
X014807Y023401D01*
X014774Y023431D01*
X014748Y023467D01*
X014727Y023506D01*
X014713Y023548D01*
X014702Y023610D01*
X014698Y023672D01*
X014702Y023719D01*
X014713Y023764D01*
X014731Y023807D01*
X014763Y023856D01*
X014805Y023898D01*
X014854Y023930D01*
X014909Y023951D01*
X014927Y023955D01*
X014946Y023956D01*
X014948Y023956D01*
X014948Y023796D01*
X014921Y023792D01*
X014895Y023783D01*
X014871Y023770D01*
X014853Y023755D01*
X014839Y023737D01*
X014828Y023715D01*
X014821Y023692D01*
X014818Y023668D01*
X014820Y023636D01*
X014827Y023604D01*
X014840Y023575D01*
X014860Y023550D01*
X014886Y023531D01*
X014915Y023518D01*
X014976Y023504D01*
X015038Y023499D01*
X015084Y023503D01*
X015128Y023515D01*
X015169Y023535D01*
X015206Y023563D01*
X015218Y023578D01*
X015226Y023595D01*
X015233Y023628D01*
X015236Y023662D01*
X015232Y023696D01*
X015222Y023728D01*
X015210Y023748D01*
X015193Y023765D01*
X015173Y023778D01*
X015151Y023786D01*
X015127Y023789D01*
X015126Y023789D01*
X015126Y023954D01*
X015173Y023945D01*
X015219Y023928D01*
X015261Y023903D01*
X015296Y023869D01*
X015324Y023829D01*
X015342Y023783D01*
X015354Y023727D01*
X015362Y023671D01*
X015361Y023610D01*
X015348Y023551D01*
X015324Y023496D01*
X015290Y023447D01*
X015247Y023405D01*
X015197Y023372D01*
X015141Y023350D01*
X015083Y023338D01*
X015111Y023344D02*
X014927Y023344D01*
X014896Y023352D02*
X015148Y023352D01*
X015168Y023361D02*
X014876Y023361D01*
X014857Y023369D02*
X015189Y023369D01*
X015205Y023378D02*
X014841Y023378D01*
X014829Y023386D02*
X015218Y023386D01*
X015231Y023395D02*
X014816Y023395D01*
X014804Y023404D02*
X015244Y023404D01*
X015254Y023412D02*
X014795Y023412D01*
X014786Y023421D02*
X015263Y023421D01*
X015271Y023429D02*
X014777Y023429D01*
X014770Y023438D02*
X015280Y023438D01*
X015289Y023446D02*
X014763Y023446D01*
X014757Y023455D02*
X015295Y023455D01*
X015301Y023463D02*
X014750Y023463D01*
X014745Y023472D02*
X015307Y023472D01*
X015313Y023480D02*
X014740Y023480D01*
X014736Y023489D02*
X015319Y023489D01*
X015324Y023498D02*
X014731Y023498D01*
X014727Y023506D02*
X014968Y023506D01*
X014930Y023515D02*
X014724Y023515D01*
X014721Y023523D02*
X014903Y023523D01*
X014885Y023532D02*
X014718Y023532D01*
X014715Y023540D02*
X014873Y023540D01*
X014862Y023549D02*
X014713Y023549D01*
X014711Y023557D02*
X014855Y023557D01*
X014848Y023566D02*
X014710Y023566D01*
X014708Y023574D02*
X014841Y023574D01*
X014837Y023583D02*
X014707Y023583D01*
X014705Y023591D02*
X014833Y023591D01*
X014829Y023600D02*
X014703Y023600D01*
X014702Y023609D02*
X014826Y023609D01*
X014824Y023617D02*
X014701Y023617D01*
X014701Y023626D02*
X014822Y023626D01*
X014820Y023634D02*
X014700Y023634D01*
X014700Y023643D02*
X014819Y023643D01*
X014819Y023651D02*
X014699Y023651D01*
X014699Y023660D02*
X014818Y023660D01*
X014818Y023668D02*
X014698Y023668D01*
X014698Y023677D02*
X014819Y023677D01*
X014820Y023685D02*
X014699Y023685D01*
X014700Y023694D02*
X014821Y023694D01*
X014824Y023703D02*
X014700Y023703D01*
X014701Y023711D02*
X014827Y023711D01*
X014830Y023720D02*
X014702Y023720D01*
X014704Y023728D02*
X014834Y023728D01*
X014839Y023737D02*
X014706Y023737D01*
X014708Y023745D02*
X014845Y023745D01*
X014852Y023754D02*
X014710Y023754D01*
X014712Y023762D02*
X014862Y023762D01*
X014872Y023771D02*
X014716Y023771D01*
X014719Y023779D02*
X014888Y023779D01*
X014909Y023788D02*
X014723Y023788D01*
X014726Y023797D02*
X014948Y023797D01*
X014948Y023805D02*
X014730Y023805D01*
X014735Y023814D02*
X014948Y023814D01*
X014948Y023822D02*
X014741Y023822D01*
X014746Y023831D02*
X014948Y023831D01*
X014948Y023839D02*
X014752Y023839D01*
X014758Y023848D02*
X014948Y023848D01*
X014948Y023856D02*
X014763Y023856D01*
X014772Y023865D02*
X014948Y023865D01*
X014948Y023873D02*
X014781Y023873D01*
X014789Y023882D02*
X014948Y023882D01*
X014948Y023891D02*
X014798Y023891D01*
X014807Y023899D02*
X014948Y023899D01*
X014948Y023908D02*
X014820Y023908D01*
X014833Y023916D02*
X014948Y023916D01*
X014948Y023925D02*
X014846Y023925D01*
X014863Y023933D02*
X014948Y023933D01*
X014948Y023942D02*
X014885Y023942D01*
X014907Y023950D02*
X014948Y023950D01*
X014975Y024019D02*
X015089Y024019D01*
X015052Y024010D02*
X015030Y024010D01*
X015043Y024008D02*
X015183Y024040D01*
X015290Y024124D01*
X015356Y024257D01*
X015363Y024315D01*
X015363Y024317D01*
X015361Y024322D01*
X015246Y024322D01*
X015240Y024278D01*
X015214Y024231D01*
X015170Y024199D01*
X015134Y024183D01*
X015075Y024172D01*
X015001Y024170D01*
X014951Y024177D01*
X014905Y024192D01*
X014863Y024214D01*
X014822Y024281D01*
X014813Y024352D01*
X014837Y024423D01*
X014877Y024467D01*
X014926Y024489D01*
X014988Y024504D01*
X015045Y024504D01*
X015122Y024494D01*
X015187Y024464D01*
X015220Y024430D01*
X015241Y024391D01*
X015245Y024343D01*
X015245Y024339D01*
X015362Y024341D01*
X015352Y024420D01*
X015330Y024484D01*
X015276Y024562D01*
X015226Y024605D01*
X015134Y024646D01*
X015048Y024657D01*
X014965Y024647D01*
X014868Y024620D01*
X014817Y024588D01*
X014772Y024541D01*
X014741Y024497D01*
X014959Y024497D01*
X014925Y024489D02*
X014738Y024489D01*
X014741Y024497D02*
X014716Y024424D01*
X014706Y024325D01*
X014722Y024207D01*
X014792Y024095D01*
X014890Y024032D01*
X015043Y024008D01*
X015113Y024488D02*
X015014Y024499D01*
X014953Y024013D02*
X015104Y024014D01*
X015127Y024027D02*
X014921Y024027D01*
X014884Y024036D02*
X015164Y024036D01*
X015188Y024044D02*
X014871Y024044D01*
X014857Y024053D02*
X015199Y024053D01*
X015210Y024061D02*
X014844Y024061D01*
X014831Y024070D02*
X015221Y024070D01*
X015232Y024078D02*
X014818Y024078D01*
X014804Y024087D02*
X015243Y024087D01*
X015254Y024096D02*
X014791Y024096D01*
X014786Y024104D02*
X015264Y024104D01*
X015275Y024113D02*
X014781Y024113D01*
X014776Y024121D02*
X015286Y024121D01*
X015293Y024130D02*
X014770Y024130D01*
X014765Y024138D02*
X015297Y024138D01*
X015301Y024147D02*
X014759Y024147D01*
X014754Y024155D02*
X015305Y024155D01*
X015310Y024164D02*
X014749Y024164D01*
X014743Y024172D02*
X014984Y024172D01*
X014939Y024181D02*
X014738Y024181D01*
X014733Y024190D02*
X014913Y024190D01*
X014893Y024198D02*
X014727Y024198D01*
X014722Y024207D02*
X014877Y024207D01*
X014862Y024215D02*
X014721Y024215D01*
X014720Y024224D02*
X014857Y024224D01*
X014852Y024232D02*
X014718Y024232D01*
X014717Y024241D02*
X014846Y024241D01*
X014841Y024249D02*
X014716Y024249D01*
X014715Y024258D02*
X014836Y024258D01*
X014831Y024266D02*
X014714Y024266D01*
X014713Y024275D02*
X014826Y024275D01*
X014822Y024284D02*
X014711Y024284D01*
X014710Y024292D02*
X014820Y024292D01*
X014819Y024301D02*
X014709Y024301D01*
X014708Y024309D02*
X014818Y024309D01*
X014817Y024318D02*
X014707Y024318D01*
X014706Y024326D02*
X014816Y024326D01*
X014815Y024335D02*
X014707Y024335D01*
X014708Y024343D02*
X014814Y024343D01*
X014813Y024352D02*
X014709Y024352D01*
X014709Y024360D02*
X014816Y024360D01*
X014819Y024369D02*
X014710Y024369D01*
X014711Y024377D02*
X014821Y024377D01*
X014824Y024386D02*
X014712Y024386D01*
X014713Y024395D02*
X014827Y024395D01*
X014830Y024403D02*
X014714Y024403D01*
X014715Y024412D02*
X014833Y024412D01*
X014836Y024420D02*
X014716Y024420D01*
X014717Y024429D02*
X014842Y024429D01*
X014850Y024437D02*
X014720Y024437D01*
X014723Y024446D02*
X014858Y024446D01*
X014865Y024454D02*
X014726Y024454D01*
X014729Y024463D02*
X014873Y024463D01*
X014887Y024471D02*
X014732Y024471D01*
X014735Y024480D02*
X014906Y024480D01*
X014875Y024629D02*
X014779Y024565D01*
X014720Y024466D01*
X014747Y024506D02*
X015315Y024506D01*
X015309Y024514D02*
X014753Y024514D01*
X014759Y024523D02*
X015303Y024523D01*
X015297Y024531D02*
X014765Y024531D01*
X014771Y024540D02*
X015291Y024540D01*
X015285Y024548D02*
X014779Y024548D01*
X014787Y024557D02*
X015279Y024557D01*
X015272Y024565D02*
X014795Y024565D01*
X014803Y024574D02*
X015262Y024574D01*
X015252Y024583D02*
X014812Y024583D01*
X014822Y024591D02*
X015242Y024591D01*
X015232Y024600D02*
X014835Y024600D01*
X014849Y024608D02*
X015219Y024608D01*
X015200Y024617D02*
X014863Y024617D01*
X014887Y024625D02*
X015181Y024625D01*
X015161Y024634D02*
X014917Y024634D01*
X014948Y024642D02*
X015142Y024642D01*
X015096Y024651D02*
X014997Y024651D01*
X014982Y024179D02*
X015079Y024178D01*
X015077Y024172D02*
X015314Y024172D01*
X015318Y024181D02*
X015123Y024181D01*
X015148Y024190D02*
X015322Y024190D01*
X015327Y024198D02*
X015168Y024198D01*
X015180Y024207D02*
X015331Y024207D01*
X015335Y024215D02*
X015192Y024215D01*
X015204Y024224D02*
X015339Y024224D01*
X015344Y024232D02*
X015215Y024232D01*
X015219Y024241D02*
X015348Y024241D01*
X015352Y024249D02*
X015224Y024249D01*
X015229Y024258D02*
X015356Y024258D01*
X015357Y024266D02*
X015233Y024266D01*
X015238Y024275D02*
X015358Y024275D01*
X015359Y024284D02*
X015241Y024284D01*
X015242Y024292D02*
X015360Y024292D01*
X015361Y024301D02*
X015243Y024301D01*
X015244Y024309D02*
X015362Y024309D01*
X015363Y024318D02*
X015245Y024318D01*
X015239Y024318D02*
X015239Y024327D01*
X015366Y024327D01*
X015366Y024335D02*
X015366Y024341D01*
X015362Y024343D02*
X015245Y024343D01*
X015244Y024352D02*
X015361Y024352D01*
X015359Y024360D02*
X015243Y024360D01*
X015243Y024369D02*
X015358Y024369D01*
X015357Y024377D02*
X015242Y024377D01*
X015241Y024386D02*
X015356Y024386D01*
X015355Y024395D02*
X015239Y024395D01*
X015234Y024403D02*
X015354Y024403D01*
X015353Y024412D02*
X015230Y024412D01*
X015225Y024420D02*
X015352Y024420D01*
X015349Y024429D02*
X015221Y024429D01*
X015213Y024437D02*
X015346Y024437D01*
X015343Y024446D02*
X015205Y024446D01*
X015196Y024454D02*
X015340Y024454D01*
X015337Y024463D02*
X015188Y024463D01*
X015171Y024471D02*
X015334Y024471D01*
X015331Y024480D02*
X015152Y024480D01*
X015134Y024489D02*
X015327Y024489D01*
X015321Y024497D02*
X015099Y024497D01*
X015191Y024220D02*
X015138Y024191D01*
X015079Y024178D01*
X015048Y024663D02*
X014874Y024629D01*
X014713Y024729D02*
X014713Y024899D01*
X015099Y024899D01*
X015124Y024898D01*
X015149Y024903D01*
X015171Y024915D01*
X015209Y024948D01*
X015220Y024963D01*
X015227Y024980D01*
X015231Y024998D01*
X015233Y025032D01*
X015232Y025052D01*
X015226Y025071D01*
X015216Y025088D01*
X015203Y025102D01*
X015180Y025117D01*
X015155Y025127D01*
X015128Y025130D01*
X014712Y025130D01*
X014712Y025300D01*
X015087Y025300D01*
X015131Y025303D01*
X015157Y025309D01*
X015181Y025320D01*
X015203Y025336D01*
X015215Y025349D01*
X015224Y025365D01*
X015229Y025382D01*
X015233Y025419D01*
X015230Y025455D01*
X015224Y025474D01*
X015215Y025491D01*
X015202Y025505D01*
X015186Y025516D01*
X015152Y025529D01*
X015117Y025533D01*
X014712Y025533D01*
X014712Y025700D01*
X015168Y025700D01*
X015211Y025693D01*
X015252Y025678D01*
X015289Y025655D01*
X015315Y025630D01*
X015335Y025599D01*
X015348Y025565D01*
X014712Y025565D01*
X014712Y025574D02*
X015345Y025574D01*
X015341Y025582D02*
X014712Y025582D01*
X014712Y025591D02*
X015338Y025591D01*
X015335Y025599D02*
X014712Y025599D01*
X014712Y025608D02*
X015329Y025608D01*
X015324Y025616D02*
X014712Y025616D01*
X014712Y025625D02*
X015318Y025625D01*
X015311Y025633D02*
X014712Y025633D01*
X014712Y025642D02*
X015302Y025642D01*
X015294Y025650D02*
X014712Y025650D01*
X014712Y025659D02*
X015283Y025659D01*
X015269Y025668D02*
X014712Y025668D01*
X014712Y025676D02*
X015255Y025676D01*
X015235Y025685D02*
X014712Y025685D01*
X014712Y025693D02*
X015212Y025693D01*
X015169Y025522D02*
X015356Y025522D01*
X015358Y025515D02*
X015348Y025565D01*
X015350Y025556D02*
X014712Y025556D01*
X014712Y025548D02*
X015351Y025548D01*
X015353Y025539D02*
X014712Y025539D01*
X014712Y025292D02*
X015273Y025292D01*
X015280Y025298D02*
X015310Y025329D01*
X015335Y025364D01*
X015350Y025396D01*
X015359Y025430D01*
X015362Y025465D01*
X015358Y025515D01*
X015358Y025514D02*
X015189Y025514D01*
X015202Y025505D02*
X015358Y025505D01*
X015359Y025497D02*
X015210Y025497D01*
X015216Y025488D02*
X015360Y025488D01*
X015361Y025480D02*
X015221Y025480D01*
X015225Y025471D02*
X015361Y025471D01*
X015362Y025462D02*
X015228Y025462D01*
X015230Y025454D02*
X015361Y025454D01*
X015360Y025445D02*
X015231Y025445D01*
X015231Y025437D02*
X015360Y025437D01*
X015359Y025428D02*
X015232Y025428D01*
X015232Y025420D02*
X015357Y025420D01*
X015354Y025411D02*
X015232Y025411D01*
X015231Y025403D02*
X015352Y025403D01*
X015349Y025394D02*
X015230Y025394D01*
X015229Y025386D02*
X015345Y025386D01*
X015341Y025377D02*
X015227Y025377D01*
X015225Y025369D02*
X015337Y025369D01*
X015332Y025360D02*
X015221Y025360D01*
X015216Y025351D02*
X015326Y025351D01*
X015320Y025343D02*
X015209Y025343D01*
X015201Y025334D02*
X015314Y025334D01*
X015307Y025326D02*
X015189Y025326D01*
X015175Y025317D02*
X015298Y025317D01*
X015290Y025309D02*
X015155Y025309D01*
X015089Y025300D02*
X015282Y025300D01*
X015280Y025298D02*
X015261Y025280D01*
X015257Y025276D01*
X015256Y025275D01*
X015256Y025273D01*
X015286Y025256D01*
X015312Y025233D01*
X015334Y025205D01*
X015350Y025174D01*
X015360Y025138D01*
X014712Y025138D01*
X014712Y025146D02*
X015358Y025146D01*
X015360Y025138D02*
X015363Y025100D01*
X015358Y025046D01*
X015348Y025003D01*
X015332Y024968D01*
X015308Y024938D01*
X015277Y024908D01*
X015260Y024895D01*
X015258Y024886D01*
X015345Y024886D01*
X015345Y024729D01*
X014713Y024729D01*
X014713Y024736D02*
X015345Y024736D01*
X015345Y024745D02*
X014713Y024745D01*
X014713Y024753D02*
X015345Y024753D01*
X015345Y024762D02*
X014713Y024762D01*
X014713Y024770D02*
X015345Y024770D01*
X015345Y024779D02*
X014713Y024779D01*
X014713Y024788D02*
X015345Y024788D01*
X015345Y024796D02*
X014713Y024796D01*
X014713Y024805D02*
X015345Y024805D01*
X015345Y024813D02*
X014713Y024813D01*
X014713Y024822D02*
X015345Y024822D01*
X015345Y024830D02*
X014713Y024830D01*
X014713Y024839D02*
X015345Y024839D01*
X015345Y024847D02*
X014713Y024847D01*
X014713Y024856D02*
X015345Y024856D01*
X015345Y024864D02*
X014713Y024864D01*
X014713Y024873D02*
X015345Y024873D01*
X015345Y024882D02*
X014713Y024882D01*
X014713Y024890D02*
X015259Y024890D01*
X015265Y024899D02*
X015127Y024899D01*
X015108Y024899D02*
X014713Y024899D01*
X014712Y025155D02*
X015355Y025155D01*
X015353Y025163D02*
X014712Y025163D01*
X014712Y025172D02*
X015350Y025172D01*
X015347Y025181D02*
X014712Y025181D01*
X014712Y025189D02*
X015342Y025189D01*
X015338Y025198D02*
X014712Y025198D01*
X014712Y025206D02*
X015333Y025206D01*
X015326Y025215D02*
X014712Y025215D01*
X014712Y025223D02*
X015320Y025223D01*
X015313Y025232D02*
X014712Y025232D01*
X014712Y025240D02*
X015304Y025240D01*
X015294Y025249D02*
X014712Y025249D01*
X014712Y025257D02*
X015283Y025257D01*
X015268Y025266D02*
X014712Y025266D01*
X014712Y025275D02*
X015256Y025275D01*
X015264Y025283D02*
X014712Y025283D01*
X015134Y025129D02*
X015361Y025129D01*
X015361Y025121D02*
X015171Y025121D01*
X015188Y025112D02*
X015362Y025112D01*
X015363Y025104D02*
X015200Y025104D01*
X015209Y025095D02*
X015362Y025095D01*
X015362Y025087D02*
X015217Y025087D01*
X015222Y025078D02*
X015361Y025078D01*
X015360Y025069D02*
X015226Y025069D01*
X015229Y025061D02*
X015359Y025061D01*
X015358Y025052D02*
X015231Y025052D01*
X015232Y025044D02*
X015357Y025044D01*
X015355Y025035D02*
X015233Y025035D01*
X015233Y025027D02*
X015353Y025027D01*
X015351Y025018D02*
X015232Y025018D01*
X015232Y025010D02*
X015349Y025010D01*
X015347Y025001D02*
X015231Y025001D01*
X015230Y024993D02*
X015343Y024993D01*
X015339Y024984D02*
X015228Y024984D01*
X015226Y024976D02*
X015335Y024976D01*
X015331Y024967D02*
X015222Y024967D01*
X015217Y024958D02*
X015324Y024958D01*
X015317Y024950D02*
X015210Y024950D01*
X015201Y024941D02*
X015310Y024941D01*
X015302Y024933D02*
X015191Y024933D01*
X015181Y024924D02*
X015294Y024924D01*
X015285Y024916D02*
X015172Y024916D01*
X015156Y024907D02*
X015276Y024907D01*
X015205Y024438D02*
X015231Y024397D01*
X015241Y024335D02*
X015366Y024335D01*
X014721Y024466D02*
X014699Y024324D01*
X014838Y024411D02*
X014892Y024468D01*
X014892Y024205D02*
X014982Y024178D01*
X014892Y024468D02*
X015014Y024499D01*
X015289Y024555D02*
X015355Y024429D01*
X015239Y024318D02*
X015226Y024263D01*
X015191Y024220D01*
X015205Y024439D02*
X015113Y024489D01*
X015049Y024663D02*
X015181Y024635D01*
X015289Y024555D01*
X015231Y024397D02*
X015241Y024335D01*
X015318Y024161D02*
X015228Y024064D01*
X015105Y024014D01*
X015126Y023950D02*
X015145Y023950D01*
X015126Y023942D02*
X015181Y023942D01*
X015205Y023933D02*
X015126Y023933D01*
X015126Y023925D02*
X015224Y023925D01*
X015239Y023916D02*
X015126Y023916D01*
X015126Y023908D02*
X015253Y023908D01*
X015265Y023899D02*
X015126Y023899D01*
X015126Y023891D02*
X015274Y023891D01*
X015283Y023882D02*
X015126Y023882D01*
X015126Y023873D02*
X015292Y023873D01*
X015299Y023865D02*
X015126Y023865D01*
X015126Y023856D02*
X015305Y023856D01*
X015311Y023848D02*
X015126Y023848D01*
X015126Y023839D02*
X015317Y023839D01*
X015322Y023831D02*
X015126Y023831D01*
X015126Y023822D02*
X015326Y023822D01*
X015330Y023814D02*
X015126Y023814D01*
X015126Y023805D02*
X015333Y023805D01*
X015337Y023797D02*
X015126Y023797D01*
X015136Y023788D02*
X015340Y023788D01*
X015343Y023779D02*
X015170Y023779D01*
X015184Y023771D02*
X015345Y023771D01*
X015347Y023762D02*
X015196Y023762D01*
X015204Y023754D02*
X015348Y023754D01*
X015350Y023745D02*
X015211Y023745D01*
X015217Y023737D02*
X015352Y023737D01*
X015354Y023728D02*
X015222Y023728D01*
X015225Y023720D02*
X015355Y023720D01*
X015357Y023711D02*
X015227Y023711D01*
X015230Y023703D02*
X015358Y023703D01*
X015359Y023694D02*
X015233Y023694D01*
X015234Y023685D02*
X015360Y023685D01*
X015361Y023677D02*
X015234Y023677D01*
X015235Y023668D02*
X015362Y023668D01*
X015362Y023660D02*
X015236Y023660D01*
X015235Y023651D02*
X015362Y023651D01*
X015361Y023643D02*
X015234Y023643D01*
X015234Y023634D02*
X015361Y023634D01*
X015361Y023626D02*
X015233Y023626D01*
X015231Y023617D02*
X015361Y023617D01*
X015361Y023609D02*
X015229Y023609D01*
X015227Y023600D02*
X015359Y023600D01*
X015357Y023591D02*
X015224Y023591D01*
X015220Y023583D02*
X015355Y023583D01*
X015353Y023574D02*
X015215Y023574D01*
X015208Y023566D02*
X015351Y023566D01*
X015349Y023557D02*
X015198Y023557D01*
X015187Y023549D02*
X015347Y023549D01*
X015343Y023540D02*
X015176Y023540D01*
X015162Y023532D02*
X015339Y023532D01*
X015336Y023523D02*
X015144Y023523D01*
X015126Y023515D02*
X015332Y023515D01*
X015328Y023506D02*
X015095Y023506D01*
X015077Y022590D02*
X015050Y022590D01*
X014984Y023335D02*
X014990Y023335D01*
X014837Y024056D02*
X014778Y024107D01*
X014892Y024205D02*
X014854Y024236D01*
X014830Y024279D01*
X014821Y024346D01*
X014838Y024411D01*
X014837Y024056D02*
X014954Y024013D01*
X014778Y024107D02*
X014720Y024209D01*
X014699Y024324D01*
X015355Y024429D02*
X015366Y024341D01*
X015366Y024327D02*
X015352Y024241D01*
X015317Y024161D01*
X015265Y022609D02*
X015250Y022598D01*
X015355Y025531D02*
X015135Y025531D01*
X015218Y022745D02*
X015216Y022701D01*
D12*
X014804Y023195D03*
M02*
