G75*
G70*
%OFA0B0*%
%FSLAX24Y24*%
%IPPOS*%
%LPD*%
%AMOC8*
5,1,8,0,0,1.08239X$1,22.5*
%
%ADD10C,0.0100*%
%ADD11C,0.0394*%
%ADD12C,0.0000*%
%ADD13R,0.0118X0.0315*%
%ADD14R,0.0315X0.0118*%
%ADD15R,0.0394X0.0394*%
%ADD16R,0.0433X0.0394*%
%ADD17R,0.0472X0.0197*%
%ADD18R,0.0197X0.0472*%
%ADD19R,0.0472X0.0217*%
%ADD20R,0.0630X0.0551*%
%ADD21C,0.0740*%
%ADD22C,0.0400*%
%ADD23C,0.0080*%
D10*
X009837Y016005D02*
X017837Y016005D01*
X017837Y027005D01*
X009837Y027005D01*
X009837Y016005D01*
X011370Y016225D02*
X011568Y016391D01*
X011568Y016392D01*
X011734Y016679D01*
X011791Y017005D01*
X011749Y017245D01*
X011852Y017142D01*
X011852Y016608D01*
X011951Y016508D01*
X012722Y016508D01*
X012822Y016608D01*
X012822Y016744D01*
X012823Y016744D01*
X012974Y016895D01*
X012975Y016896D01*
X013018Y016853D01*
X013632Y016853D01*
X013700Y016921D01*
X013800Y016921D01*
X013924Y017045D01*
X013942Y017064D01*
X013942Y016952D01*
X014015Y016880D01*
X014007Y016872D01*
X013885Y016872D01*
X013823Y016810D01*
X013781Y016852D01*
X013551Y016852D01*
X013551Y016554D01*
X013454Y016554D01*
X013454Y016852D01*
X013224Y016852D01*
X013136Y016764D01*
X013136Y016553D01*
X013454Y016553D01*
X013454Y016457D01*
X013136Y016457D01*
X013136Y016246D01*
X013157Y016225D01*
X011370Y016225D01*
X011460Y016301D02*
X013136Y016301D01*
X013136Y016399D02*
X011572Y016399D01*
X011568Y016391D02*
X011568Y016391D01*
X011629Y016498D02*
X013454Y016498D01*
X013454Y016596D02*
X013551Y016596D01*
X013551Y016695D02*
X013454Y016695D01*
X013454Y016793D02*
X013551Y016793D01*
X013671Y016892D02*
X014003Y016892D01*
X013942Y016990D02*
X013869Y016990D01*
X014047Y017409D02*
X014047Y017601D01*
X014655Y017601D01*
X014724Y017669D01*
X014798Y017669D01*
X014852Y017723D01*
X014852Y017710D01*
X014951Y017611D01*
X015722Y017611D01*
X015822Y017710D01*
X015822Y018402D01*
X015722Y018502D01*
X015547Y018502D01*
X015547Y018618D01*
X015712Y018783D01*
X015712Y018957D01*
X015712Y019138D01*
X015789Y019138D01*
X015851Y019200D01*
X015893Y019158D01*
X016123Y019158D01*
X016123Y019456D01*
X016220Y019456D01*
X016220Y019158D01*
X016450Y019158D01*
X016538Y019246D01*
X016538Y019457D01*
X016220Y019457D01*
X016220Y019553D01*
X017617Y019553D01*
X017617Y019651D02*
X016538Y019651D01*
X016538Y019553D02*
X016538Y019764D01*
X016538Y019957D01*
X016220Y019957D01*
X016220Y020053D01*
X016538Y020053D01*
X016538Y020264D01*
X016450Y020352D01*
X016220Y020352D01*
X016220Y020054D01*
X016123Y020054D01*
X016123Y020352D01*
X015893Y020352D01*
X015851Y020310D01*
X015789Y020372D01*
X015215Y020372D01*
X015141Y020298D01*
X015045Y020393D01*
X015072Y020393D01*
X015224Y020545D01*
X015317Y020638D01*
X015789Y020638D01*
X015851Y020700D01*
X015893Y020658D01*
X016123Y020658D01*
X016123Y020956D01*
X016220Y020956D01*
X016220Y020658D01*
X016450Y020658D01*
X016538Y020746D01*
X016538Y020957D01*
X016220Y020957D01*
X016220Y021053D01*
X016538Y021053D01*
X016538Y021264D01*
X016450Y021352D01*
X016220Y021352D01*
X016220Y021054D01*
X016123Y021054D01*
X016123Y021352D01*
X015893Y021352D01*
X015851Y021310D01*
X015789Y021372D01*
X015215Y021372D01*
X015116Y021272D01*
X015116Y021181D01*
X014952Y021017D01*
X014952Y021127D01*
X014879Y021200D01*
X014924Y021245D01*
X015074Y021395D01*
X016000Y021395D01*
X016174Y021395D01*
X016414Y021635D01*
X016510Y021635D01*
X016646Y021691D01*
X016750Y021795D01*
X016807Y021931D01*
X016807Y022079D01*
X016750Y022215D01*
X016646Y022319D01*
X016510Y022375D01*
X016363Y022375D01*
X016227Y022319D01*
X016123Y022215D01*
X016067Y022079D01*
X016067Y021931D01*
X016081Y021896D01*
X016038Y021853D01*
X016038Y021957D01*
X015720Y021957D01*
X015720Y022053D01*
X016038Y022053D01*
X016038Y022264D01*
X015950Y022352D01*
X015720Y022352D01*
X015720Y022054D01*
X015623Y022054D01*
X015623Y022352D01*
X015393Y022352D01*
X015351Y022310D01*
X015289Y022372D01*
X015212Y022372D01*
X015212Y023453D01*
X015212Y023627D01*
X015024Y023815D01*
X014974Y023865D01*
X014836Y024002D01*
X014662Y024002D01*
X014635Y024002D01*
X014577Y024061D01*
X014105Y024061D01*
X014105Y024135D01*
X014108Y024138D01*
X014458Y024138D01*
X014558Y024238D01*
X014558Y024772D01*
X014458Y024872D01*
X013885Y024872D01*
X013823Y024810D01*
X013781Y024852D01*
X013551Y024852D01*
X013551Y024554D01*
X013454Y024554D01*
X013454Y024852D01*
X013224Y024852D01*
X013136Y024764D01*
X013136Y024553D01*
X013454Y024553D01*
X013454Y024457D01*
X013136Y024457D01*
X013136Y024246D01*
X013224Y024158D01*
X013454Y024158D01*
X013454Y024456D01*
X013551Y024456D01*
X013551Y024158D01*
X013588Y024158D01*
X013568Y024138D01*
X013568Y024061D01*
X013097Y024061D01*
X013039Y024002D01*
X012536Y024002D01*
X012474Y024065D01*
X011850Y024065D01*
X011800Y024065D01*
X011677Y023942D01*
X011450Y023715D01*
X010834Y023715D01*
X010795Y023811D01*
X010643Y023963D01*
X010541Y024005D01*
X010643Y024047D01*
X010795Y024199D01*
X010877Y024398D01*
X010877Y024612D01*
X010795Y024811D01*
X010643Y024963D01*
X010444Y025045D01*
X010229Y025045D01*
X010057Y024973D01*
X010057Y025476D01*
X010106Y025391D01*
X010360Y025178D01*
X010671Y025065D01*
X010750Y025065D01*
X010837Y025065D01*
X011003Y025065D01*
X011314Y025178D01*
X011568Y025391D01*
X011568Y025392D01*
X011734Y025679D01*
X011791Y026005D01*
X011734Y026331D01*
X011734Y026331D01*
X011568Y026619D01*
X011370Y026785D01*
X016304Y026785D01*
X016106Y026619D01*
X016106Y026619D01*
X016106Y026619D01*
X015940Y026331D01*
X015882Y026005D01*
X015940Y025679D01*
X015940Y025679D01*
X016106Y025391D01*
X016360Y025178D01*
X016671Y025065D01*
X016750Y025065D01*
X016837Y025065D01*
X017003Y025065D01*
X017314Y025178D01*
X017568Y025391D01*
X017568Y025392D01*
X017617Y025476D01*
X017617Y018244D01*
X017545Y018316D01*
X017410Y018372D01*
X017264Y018372D01*
X017129Y018316D01*
X017026Y018213D01*
X016970Y018078D01*
X016970Y017945D01*
X016924Y017945D01*
X016837Y017945D01*
X016812Y017945D01*
X016750Y017945D01*
X016671Y017945D01*
X016360Y017832D01*
X016106Y017619D01*
X016106Y017619D01*
X016106Y017619D01*
X015940Y017331D01*
X015882Y017005D01*
X015940Y016679D01*
X015940Y016679D01*
X016106Y016391D01*
X016304Y016225D01*
X014545Y016225D01*
X014558Y016238D01*
X014558Y016772D01*
X014529Y016801D01*
X014559Y016830D01*
X014559Y016853D01*
X014655Y016853D01*
X014755Y016952D01*
X014755Y017310D01*
X014655Y017409D01*
X014047Y017409D01*
X014047Y017483D02*
X016028Y017483D01*
X016084Y017582D02*
X014047Y017582D01*
X013942Y017946D02*
X013924Y017965D01*
X013924Y017965D01*
X013800Y018089D01*
X013700Y018089D01*
X013651Y018138D01*
X013789Y018138D01*
X013851Y018200D01*
X013893Y018158D01*
X014123Y018158D01*
X014123Y018456D01*
X014220Y018456D01*
X014220Y018158D01*
X014450Y018158D01*
X014538Y018246D01*
X014538Y018457D01*
X014220Y018457D01*
X014220Y018553D01*
X014538Y018553D01*
X014538Y018719D01*
X014643Y018675D01*
X014790Y018675D01*
X014926Y018731D01*
X015030Y018835D01*
X015087Y018971D01*
X015087Y019119D01*
X015054Y019198D01*
X015086Y019211D01*
X015116Y019241D01*
X015116Y019238D01*
X015215Y019138D01*
X015292Y019138D01*
X015292Y018957D01*
X015250Y018915D01*
X015127Y018792D01*
X015127Y018742D01*
X015127Y018502D01*
X014951Y018502D01*
X014852Y018402D01*
X014852Y018266D01*
X014801Y018266D01*
X014674Y018139D01*
X014655Y018157D01*
X014042Y018157D01*
X013942Y018058D01*
X013942Y017946D01*
X013942Y017976D02*
X013913Y017976D01*
X013959Y018074D02*
X013814Y018074D01*
X013824Y018173D02*
X013878Y018173D01*
X014123Y018173D02*
X014220Y018173D01*
X014220Y018272D02*
X014123Y018272D01*
X014123Y018370D02*
X014220Y018370D01*
X014220Y018469D02*
X014918Y018469D01*
X014852Y018370D02*
X014538Y018370D01*
X014538Y018272D02*
X014852Y018272D01*
X014708Y018173D02*
X014465Y018173D01*
X014538Y018567D02*
X015127Y018567D01*
X015127Y018666D02*
X014538Y018666D01*
X014396Y018852D02*
X014220Y018852D01*
X014220Y018554D01*
X014123Y018554D01*
X014123Y018852D01*
X013893Y018852D01*
X013851Y018810D01*
X013789Y018872D01*
X013215Y018872D01*
X013116Y018772D01*
X013116Y018309D01*
X013114Y018307D01*
X013116Y018299D01*
X013116Y018238D01*
X013127Y018227D01*
X013127Y018192D01*
X013127Y018157D01*
X013018Y018157D01*
X012919Y018058D01*
X012919Y017700D01*
X012941Y017678D01*
X012939Y017675D01*
X012939Y017509D01*
X013321Y017509D01*
X013321Y017501D01*
X012939Y017501D01*
X012939Y017341D01*
X012826Y017341D01*
X012803Y017318D01*
X012722Y017399D01*
X012188Y017399D01*
X011773Y017815D01*
X011674Y017815D01*
X010877Y018612D01*
X010877Y018612D01*
X010795Y018811D01*
X010643Y018963D01*
X010515Y019016D01*
X010631Y019064D01*
X010778Y019210D01*
X010857Y019402D01*
X010857Y019455D01*
X010387Y019455D01*
X010387Y019555D01*
X010857Y019555D01*
X010857Y019608D01*
X010784Y019785D01*
X010946Y019785D01*
X011116Y019785D01*
X011116Y019738D01*
X011215Y019638D01*
X011292Y019638D01*
X011292Y019427D01*
X011292Y019253D01*
X011527Y019018D01*
X011650Y018895D01*
X012250Y018895D01*
X012300Y018895D01*
X012474Y018895D01*
X012585Y019007D01*
X012623Y018915D01*
X012727Y018811D01*
X012863Y018755D01*
X013010Y018755D01*
X013146Y018811D01*
X013250Y018915D01*
X014344Y018915D01*
X014362Y018934D01*
X014396Y018852D01*
X014392Y018863D02*
X013798Y018863D01*
X014123Y018764D02*
X014220Y018764D01*
X014220Y018666D02*
X014123Y018666D01*
X014123Y018567D02*
X014220Y018567D01*
X014959Y018764D02*
X015127Y018764D01*
X015198Y018863D02*
X015042Y018863D01*
X015083Y018961D02*
X015292Y018961D01*
X015292Y019060D02*
X015087Y019060D01*
X015070Y019158D02*
X015195Y019158D01*
X015712Y019060D02*
X017617Y019060D01*
X017617Y019158D02*
X016450Y019158D01*
X016538Y019257D02*
X017617Y019257D01*
X017617Y019356D02*
X016538Y019356D01*
X016538Y019454D02*
X017617Y019454D01*
X017617Y019750D02*
X016538Y019750D01*
X016538Y019848D02*
X017617Y019848D01*
X017617Y019947D02*
X016538Y019947D01*
X016538Y020144D02*
X017617Y020144D01*
X017617Y020242D02*
X016538Y020242D01*
X016461Y020341D02*
X017617Y020341D01*
X017617Y020439D02*
X015118Y020439D01*
X015098Y020341D02*
X015184Y020341D01*
X015217Y020538D02*
X017617Y020538D01*
X017617Y020637D02*
X015315Y020637D01*
X015820Y020341D02*
X015882Y020341D01*
X016123Y020341D02*
X016220Y020341D01*
X016220Y020242D02*
X016123Y020242D01*
X016123Y020144D02*
X016220Y020144D01*
X016220Y020045D02*
X017617Y020045D01*
X016538Y019553D02*
X016220Y019553D01*
X016220Y019554D02*
X016123Y019554D01*
X016123Y019852D01*
X016123Y019956D01*
X016220Y019956D01*
X016220Y019852D01*
X016220Y019554D01*
X016220Y019651D02*
X016123Y019651D01*
X016123Y019750D02*
X016220Y019750D01*
X016220Y019848D02*
X016123Y019848D01*
X016123Y019947D02*
X016220Y019947D01*
X016220Y019454D02*
X016123Y019454D01*
X016123Y019356D02*
X016220Y019356D01*
X016220Y019257D02*
X016123Y019257D01*
X016123Y019158D02*
X016220Y019158D01*
X015893Y019158D02*
X015809Y019158D01*
X015712Y018961D02*
X017617Y018961D01*
X017617Y018863D02*
X015712Y018863D01*
X015693Y018764D02*
X017617Y018764D01*
X017617Y018666D02*
X015594Y018666D01*
X015547Y018567D02*
X017617Y018567D01*
X017617Y018469D02*
X015755Y018469D01*
X015822Y018370D02*
X017260Y018370D01*
X017414Y018370D02*
X017617Y018370D01*
X017617Y018272D02*
X017589Y018272D01*
X017085Y018272D02*
X015822Y018272D01*
X015822Y018173D02*
X017009Y018173D01*
X016970Y018074D02*
X015822Y018074D01*
X015822Y017976D02*
X016970Y017976D01*
X016671Y017945D02*
X016671Y017945D01*
X016485Y017877D02*
X015822Y017877D01*
X015822Y017779D02*
X016297Y017779D01*
X016179Y017680D02*
X015792Y017680D01*
X015714Y017379D02*
X015387Y017379D01*
X015387Y017004D01*
X015287Y017004D01*
X015287Y017379D01*
X014960Y017379D01*
X014872Y017292D01*
X014872Y017004D01*
X015287Y017004D01*
X015287Y016904D01*
X014872Y016904D01*
X014872Y016616D01*
X014960Y016528D01*
X015287Y016528D01*
X015287Y016904D01*
X015387Y016904D01*
X015387Y017004D01*
X015802Y017004D01*
X015802Y017292D01*
X015714Y017379D01*
X015802Y017286D02*
X015932Y017286D01*
X015940Y017331D02*
X015940Y017331D01*
X015971Y017385D02*
X014680Y017385D01*
X014755Y017286D02*
X014872Y017286D01*
X014872Y017188D02*
X014755Y017188D01*
X014755Y017089D02*
X014872Y017089D01*
X014755Y016990D02*
X015287Y016990D01*
X015287Y016892D02*
X015387Y016892D01*
X015387Y016904D02*
X015387Y016528D01*
X015714Y016528D01*
X015802Y016616D01*
X015802Y016904D01*
X015387Y016904D01*
X015387Y016990D02*
X015885Y016990D01*
X015882Y017005D02*
X015882Y017005D01*
X015897Y017089D02*
X015802Y017089D01*
X015802Y017188D02*
X015915Y017188D01*
X015902Y016892D02*
X015802Y016892D01*
X015802Y016793D02*
X015920Y016793D01*
X015937Y016695D02*
X015802Y016695D01*
X015782Y016596D02*
X015987Y016596D01*
X016044Y016498D02*
X014558Y016498D01*
X014558Y016596D02*
X014892Y016596D01*
X014872Y016695D02*
X014558Y016695D01*
X014537Y016793D02*
X014872Y016793D01*
X014872Y016892D02*
X014694Y016892D01*
X015287Y016793D02*
X015387Y016793D01*
X015387Y016695D02*
X015287Y016695D01*
X015287Y016596D02*
X015387Y016596D01*
X015387Y017089D02*
X015287Y017089D01*
X015287Y017188D02*
X015387Y017188D01*
X015387Y017286D02*
X015287Y017286D01*
X014882Y017680D02*
X014809Y017680D01*
X013337Y017891D02*
X013325Y017879D01*
X013127Y018173D02*
X012802Y018173D01*
X012802Y018106D02*
X012802Y018394D01*
X012714Y018482D01*
X012387Y018482D01*
X012387Y018106D01*
X012802Y018106D01*
X012802Y018006D02*
X012387Y018006D01*
X012387Y018106D01*
X012287Y018106D01*
X012287Y018006D01*
X012387Y018006D01*
X012387Y017631D01*
X012714Y017631D01*
X012802Y017718D01*
X012802Y018006D01*
X012802Y017976D02*
X012919Y017976D01*
X012919Y017877D02*
X012802Y017877D01*
X012802Y017779D02*
X012919Y017779D01*
X012939Y017680D02*
X012764Y017680D01*
X012939Y017582D02*
X012006Y017582D01*
X011960Y017631D02*
X012287Y017631D01*
X012287Y018006D01*
X011872Y018006D01*
X011872Y017718D01*
X011960Y017631D01*
X011910Y017680D02*
X011907Y017680D01*
X011872Y017779D02*
X011809Y017779D01*
X011872Y017877D02*
X011611Y017877D01*
X011513Y017976D02*
X011872Y017976D01*
X011872Y018106D02*
X012287Y018106D01*
X012287Y018482D01*
X011960Y018482D01*
X011872Y018394D01*
X011872Y018106D01*
X011872Y018173D02*
X011316Y018173D01*
X011414Y018074D02*
X012287Y018074D01*
X012287Y017976D02*
X012387Y017976D01*
X012387Y018074D02*
X012936Y018074D01*
X012802Y018272D02*
X013116Y018272D01*
X013116Y018370D02*
X012802Y018370D01*
X012727Y018469D02*
X013116Y018469D01*
X013116Y018567D02*
X010922Y018567D01*
X010855Y018666D02*
X013116Y018666D01*
X013116Y018764D02*
X013033Y018764D01*
X012841Y018764D02*
X010814Y018764D01*
X010743Y018863D02*
X012676Y018863D01*
X012604Y018961D02*
X012540Y018961D01*
X013198Y018863D02*
X013206Y018863D01*
X012387Y018469D02*
X012287Y018469D01*
X012287Y018370D02*
X012387Y018370D01*
X012387Y018272D02*
X012287Y018272D01*
X012287Y018173D02*
X012387Y018173D01*
X012387Y017877D02*
X012287Y017877D01*
X012287Y017779D02*
X012387Y017779D01*
X012387Y017680D02*
X012287Y017680D01*
X012104Y017483D02*
X012939Y017483D01*
X012939Y017385D02*
X012737Y017385D01*
X012974Y016895D02*
X012974Y016895D01*
X012971Y016892D02*
X012979Y016892D01*
X012872Y016793D02*
X013165Y016793D01*
X013136Y016695D02*
X012822Y016695D01*
X012810Y016596D02*
X013136Y016596D01*
X011863Y016596D02*
X011686Y016596D01*
X011734Y016679D02*
X011734Y016679D01*
X011737Y016695D02*
X011852Y016695D01*
X011852Y016793D02*
X011754Y016793D01*
X011771Y016892D02*
X011852Y016892D01*
X011852Y016990D02*
X011789Y016990D01*
X011791Y017005D02*
X011791Y017005D01*
X011776Y017089D02*
X011852Y017089D01*
X011806Y017188D02*
X011759Y017188D01*
X011872Y018272D02*
X011217Y018272D01*
X011119Y018370D02*
X011872Y018370D01*
X011947Y018469D02*
X011020Y018469D01*
X010644Y018961D02*
X011584Y018961D01*
X011485Y019060D02*
X010621Y019060D01*
X010726Y019158D02*
X011386Y019158D01*
X011292Y019257D02*
X010797Y019257D01*
X010838Y019356D02*
X011292Y019356D01*
X011292Y019454D02*
X010857Y019454D01*
X010839Y019651D02*
X011202Y019651D01*
X011116Y019750D02*
X010798Y019750D01*
X010837Y020005D02*
X011037Y020005D01*
X011502Y020005D01*
X010837Y020005D02*
X010337Y020505D01*
X010837Y021005D02*
X011037Y021005D01*
X011087Y021005D01*
X011502Y021005D01*
X011592Y021372D02*
X011215Y021372D01*
X011116Y021272D01*
X011116Y021225D01*
X010996Y021225D01*
X010946Y021225D01*
X010928Y021225D01*
X010841Y021312D01*
X010877Y021398D01*
X010877Y021612D01*
X010795Y021811D01*
X010643Y021963D01*
X010541Y022005D01*
X010643Y022047D01*
X010795Y022199D01*
X010877Y022398D01*
X010877Y022612D01*
X010795Y022811D01*
X010643Y022963D01*
X010541Y023005D01*
X010643Y023047D01*
X010795Y023199D01*
X010834Y023295D01*
X011450Y023295D01*
X011624Y023295D01*
X011787Y023458D01*
X011787Y023451D01*
X011843Y023315D01*
X011947Y023211D01*
X012083Y023155D01*
X012230Y023155D01*
X012366Y023211D01*
X012470Y023315D01*
X012998Y023315D01*
X012998Y023309D01*
X012998Y022994D01*
X012998Y022679D01*
X013018Y022659D01*
X013018Y022533D01*
X013403Y022533D01*
X013403Y022532D01*
X013018Y022532D01*
X013018Y022507D01*
X012950Y022535D01*
X012803Y022535D01*
X012667Y022479D01*
X012563Y022375D01*
X012532Y022299D01*
X012458Y022372D01*
X011885Y022372D01*
X011823Y022310D01*
X011781Y022352D01*
X011551Y022352D01*
X011551Y022054D01*
X011454Y022054D01*
X011454Y022352D01*
X011224Y022352D01*
X011136Y022264D01*
X011136Y022053D01*
X011454Y022053D01*
X011454Y021957D01*
X011136Y021957D01*
X011136Y021746D01*
X011224Y021658D01*
X011454Y021658D01*
X011454Y021956D01*
X011551Y021956D01*
X011551Y021658D01*
X011600Y021658D01*
X011567Y021579D01*
X011567Y021431D01*
X011592Y021372D01*
X011570Y021425D02*
X010877Y021425D01*
X010877Y021523D02*
X011567Y021523D01*
X011585Y021622D02*
X010873Y021622D01*
X010832Y021721D02*
X011161Y021721D01*
X011136Y021819D02*
X010786Y021819D01*
X010688Y021918D02*
X011136Y021918D01*
X011136Y022115D02*
X010710Y022115D01*
X010800Y022213D02*
X011136Y022213D01*
X011183Y022312D02*
X010841Y022312D01*
X010877Y022410D02*
X012599Y022410D01*
X012537Y022312D02*
X012518Y022312D01*
X012740Y022509D02*
X010877Y022509D01*
X010877Y022607D02*
X013018Y022607D01*
X013013Y022509D02*
X013018Y022509D01*
X012998Y022706D02*
X010838Y022706D01*
X010797Y022805D02*
X012998Y022805D01*
X012998Y022903D02*
X010702Y022903D01*
X010549Y023002D02*
X012998Y023002D01*
X012998Y023100D02*
X010696Y023100D01*
X010794Y023199D02*
X011978Y023199D01*
X011861Y023297D02*
X011626Y023297D01*
X011725Y023396D02*
X011810Y023396D01*
X012336Y023199D02*
X012998Y023199D01*
X012998Y023297D02*
X012452Y023297D01*
X011623Y023889D02*
X010717Y023889D01*
X010803Y023790D02*
X011525Y023790D01*
X011722Y023987D02*
X010584Y023987D01*
X010681Y024086D02*
X013568Y024086D01*
X013551Y024184D02*
X013454Y024184D01*
X013454Y024283D02*
X013551Y024283D01*
X013551Y024381D02*
X013454Y024381D01*
X013454Y024480D02*
X010877Y024480D01*
X010877Y024578D02*
X013136Y024578D01*
X013136Y024677D02*
X010850Y024677D01*
X010809Y024775D02*
X013147Y024775D01*
X013454Y024775D02*
X013551Y024775D01*
X013551Y024677D02*
X013454Y024677D01*
X013454Y024578D02*
X013551Y024578D01*
X013136Y024381D02*
X010870Y024381D01*
X010829Y024283D02*
X013136Y024283D01*
X013198Y024184D02*
X010780Y024184D01*
X010732Y024874D02*
X017617Y024874D01*
X017617Y024972D02*
X010619Y024972D01*
X010655Y025071D02*
X010057Y025071D01*
X010057Y025170D02*
X010384Y025170D01*
X010360Y025178D02*
X010360Y025178D01*
X010253Y025268D02*
X010057Y025268D01*
X010057Y025367D02*
X010135Y025367D01*
X010063Y025465D02*
X010057Y025465D01*
X011003Y025065D02*
X011003Y025065D01*
X011019Y025071D02*
X016655Y025071D01*
X016384Y025170D02*
X011290Y025170D01*
X011421Y025268D02*
X016253Y025268D01*
X016360Y025178D02*
X016360Y025178D01*
X016135Y025367D02*
X011538Y025367D01*
X011568Y025391D02*
X011568Y025391D01*
X011611Y025465D02*
X016063Y025465D01*
X016006Y025564D02*
X011667Y025564D01*
X011724Y025662D02*
X012206Y025662D01*
X012264Y025638D02*
X012410Y025638D01*
X012545Y025694D01*
X012648Y025797D01*
X012704Y025932D01*
X012704Y026078D01*
X012648Y026213D01*
X012545Y026316D01*
X012410Y026372D01*
X012264Y026372D01*
X012129Y026316D01*
X012026Y026213D01*
X011970Y026078D01*
X011970Y025932D01*
X012026Y025797D01*
X012129Y025694D01*
X012264Y025638D01*
X012468Y025662D02*
X015949Y025662D01*
X015925Y025761D02*
X012611Y025761D01*
X012674Y025859D02*
X015908Y025859D01*
X015891Y025958D02*
X012704Y025958D01*
X012704Y026056D02*
X015891Y026056D01*
X015882Y026005D02*
X015882Y026005D01*
X015909Y026155D02*
X012672Y026155D01*
X012607Y026254D02*
X015926Y026254D01*
X015940Y026331D02*
X015940Y026331D01*
X015952Y026352D02*
X012458Y026352D01*
X012216Y026352D02*
X011722Y026352D01*
X011747Y026254D02*
X012067Y026254D01*
X012002Y026155D02*
X011765Y026155D01*
X011782Y026056D02*
X011970Y026056D01*
X011970Y025958D02*
X011783Y025958D01*
X011791Y026005D02*
X011791Y026005D01*
X011766Y025859D02*
X012000Y025859D01*
X012062Y025761D02*
X011748Y025761D01*
X011734Y025679D02*
X011734Y025679D01*
X011665Y026451D02*
X016009Y026451D01*
X016066Y026549D02*
X011608Y026549D01*
X011533Y026648D02*
X016141Y026648D01*
X016258Y026746D02*
X011416Y026746D01*
X014555Y024775D02*
X017617Y024775D01*
X017617Y024677D02*
X014558Y024677D01*
X014558Y024578D02*
X017617Y024578D01*
X017617Y024480D02*
X014558Y024480D01*
X014558Y024381D02*
X017617Y024381D01*
X017617Y024283D02*
X014558Y024283D01*
X014504Y024184D02*
X017617Y024184D01*
X017617Y024086D02*
X014105Y024086D01*
X014270Y023478D02*
X014656Y023478D01*
X014656Y023582D01*
X014662Y023582D01*
X014677Y023568D01*
X014727Y023518D01*
X014792Y023453D01*
X014792Y022372D01*
X014715Y022372D01*
X014691Y022348D01*
X014676Y022363D01*
X014676Y022386D01*
X014656Y022406D01*
X014656Y022532D01*
X014270Y022532D01*
X014270Y022533D01*
X014656Y022533D01*
X014656Y022659D01*
X014676Y022679D01*
X014676Y023016D01*
X014656Y023036D01*
X014656Y023162D01*
X014270Y023162D01*
X014270Y023163D01*
X014270Y023163D01*
X014270Y023229D01*
X014270Y023477D01*
X014270Y023477D01*
X014270Y023411D01*
X014270Y023163D01*
X014656Y023163D01*
X014656Y023317D01*
X014656Y023477D01*
X014270Y023477D01*
X014270Y023478D01*
X014270Y023396D02*
X014270Y023396D01*
X014270Y023297D02*
X014270Y023297D01*
X014270Y023199D02*
X014270Y023199D01*
X014269Y023163D02*
X014269Y023162D01*
X013884Y023162D01*
X013884Y023036D01*
X013864Y023016D01*
X013864Y022679D01*
X013884Y022659D01*
X013884Y022584D01*
X013790Y022584D01*
X013790Y022659D01*
X013810Y022679D01*
X013810Y022994D01*
X013810Y023309D01*
X013810Y023426D01*
X013884Y023426D01*
X013884Y023323D01*
X013884Y023163D01*
X014269Y023163D01*
X013884Y023199D02*
X013810Y023199D01*
X013810Y023297D02*
X013884Y023297D01*
X013884Y023396D02*
X013810Y023396D01*
X013810Y023100D02*
X013884Y023100D01*
X013864Y023002D02*
X013810Y023002D01*
X013810Y022903D02*
X013864Y022903D01*
X013864Y022805D02*
X013810Y022805D01*
X013810Y022706D02*
X013864Y022706D01*
X013884Y022607D02*
X013790Y022607D01*
X014656Y022607D02*
X014792Y022607D01*
X014792Y022509D02*
X014656Y022509D01*
X014656Y022410D02*
X014792Y022410D01*
X014792Y022706D02*
X014676Y022706D01*
X014676Y022805D02*
X014792Y022805D01*
X014792Y022903D02*
X014676Y022903D01*
X014676Y023002D02*
X014792Y023002D01*
X014792Y023100D02*
X014656Y023100D01*
X014656Y023199D02*
X014792Y023199D01*
X014792Y023297D02*
X014656Y023297D01*
X014656Y023396D02*
X014792Y023396D01*
X014751Y023494D02*
X014656Y023494D01*
X015049Y023790D02*
X017617Y023790D01*
X017617Y023889D02*
X014950Y023889D01*
X014852Y023987D02*
X017617Y023987D01*
X017617Y023691D02*
X015147Y023691D01*
X015212Y023593D02*
X017617Y023593D01*
X017617Y023494D02*
X015212Y023494D01*
X015212Y023396D02*
X017617Y023396D01*
X017617Y023297D02*
X015212Y023297D01*
X015212Y023199D02*
X017617Y023199D01*
X017617Y023100D02*
X015212Y023100D01*
X015212Y023002D02*
X017617Y023002D01*
X017617Y022903D02*
X015212Y022903D01*
X015212Y022805D02*
X017617Y022805D01*
X017617Y022706D02*
X015212Y022706D01*
X015212Y022607D02*
X017617Y022607D01*
X017617Y022509D02*
X015212Y022509D01*
X015212Y022410D02*
X017617Y022410D01*
X017617Y022312D02*
X016653Y022312D01*
X016751Y022213D02*
X017617Y022213D01*
X017617Y022115D02*
X016792Y022115D01*
X016807Y022016D02*
X017617Y022016D01*
X017617Y021918D02*
X016801Y021918D01*
X016760Y021819D02*
X017617Y021819D01*
X017617Y021721D02*
X016676Y021721D01*
X016401Y021622D02*
X017617Y021622D01*
X017617Y021523D02*
X016302Y021523D01*
X016204Y021425D02*
X017617Y021425D01*
X017617Y021326D02*
X016476Y021326D01*
X016538Y021228D02*
X017617Y021228D01*
X017617Y021129D02*
X016538Y021129D01*
X016538Y020932D02*
X017617Y020932D01*
X017617Y020834D02*
X016538Y020834D01*
X016527Y020735D02*
X017617Y020735D01*
X017617Y021031D02*
X016220Y021031D01*
X016220Y021129D02*
X016123Y021129D01*
X016123Y021228D02*
X016220Y021228D01*
X016220Y021326D02*
X016123Y021326D01*
X015867Y021326D02*
X015835Y021326D01*
X015170Y021326D02*
X015005Y021326D01*
X014907Y021228D02*
X015116Y021228D01*
X015064Y021129D02*
X014949Y021129D01*
X014952Y021031D02*
X014966Y021031D01*
X016123Y020932D02*
X016220Y020932D01*
X016220Y020834D02*
X016123Y020834D01*
X016123Y020735D02*
X016220Y020735D01*
X016073Y021918D02*
X016038Y021918D01*
X016067Y022016D02*
X015720Y022016D01*
X015720Y022115D02*
X015623Y022115D01*
X015623Y022213D02*
X015720Y022213D01*
X015720Y022312D02*
X015623Y022312D01*
X015353Y022312D02*
X015349Y022312D01*
X015990Y022312D02*
X016220Y022312D01*
X016123Y022213D02*
X016038Y022213D01*
X016038Y022115D02*
X016082Y022115D01*
X013313Y021293D02*
X013313Y021292D01*
X013136Y021292D01*
X013136Y021226D01*
X012822Y021226D01*
X012747Y021151D01*
X012747Y021442D01*
X012697Y021492D01*
X012697Y021592D01*
X012574Y021715D01*
X012554Y021734D01*
X012558Y021738D01*
X012558Y021968D01*
X012563Y021955D01*
X012667Y021851D01*
X012803Y021795D01*
X012950Y021795D01*
X013086Y021851D01*
X013179Y021944D01*
X013192Y021947D01*
X013147Y021839D01*
X013147Y021691D01*
X013196Y021572D01*
X013136Y021512D01*
X013136Y021293D01*
X013313Y021293D01*
X013136Y021326D02*
X012747Y021326D01*
X012747Y021228D02*
X013136Y021228D01*
X013136Y021425D02*
X012747Y021425D01*
X012697Y021523D02*
X013147Y021523D01*
X013176Y021622D02*
X012667Y021622D01*
X012568Y021721D02*
X013147Y021721D01*
X013147Y021819D02*
X013008Y021819D01*
X013153Y021918D02*
X013180Y021918D01*
X012745Y021819D02*
X012558Y021819D01*
X012558Y021918D02*
X012601Y021918D01*
X011825Y022312D02*
X011821Y022312D01*
X011551Y022312D02*
X011454Y022312D01*
X011454Y022213D02*
X011551Y022213D01*
X011551Y022115D02*
X011454Y022115D01*
X011454Y022016D02*
X010568Y022016D01*
X010337Y021505D02*
X010837Y021005D01*
X010925Y021228D02*
X011116Y021228D01*
X011170Y021326D02*
X010847Y021326D01*
X011454Y021721D02*
X011551Y021721D01*
X011551Y021819D02*
X011454Y021819D01*
X011454Y021918D02*
X011551Y021918D01*
X011292Y019553D02*
X010387Y019553D01*
X014558Y016399D02*
X016101Y016399D01*
X016214Y016301D02*
X014558Y016301D01*
X017003Y025065D02*
X017003Y025065D01*
X017019Y025071D02*
X017617Y025071D01*
X017617Y025170D02*
X017290Y025170D01*
X017421Y025268D02*
X017617Y025268D01*
X017617Y025367D02*
X017538Y025367D01*
X017568Y025391D02*
X017568Y025391D01*
X017610Y025465D02*
X017617Y025465D01*
D11*
X012337Y026005D03*
X017337Y018005D03*
D12*
X016187Y017005D02*
X016222Y017216D01*
X016324Y017404D01*
X016481Y017549D01*
X016677Y017635D01*
X016891Y017653D01*
X017098Y017600D01*
X017277Y017483D01*
X017409Y017314D01*
X017478Y017112D01*
X017478Y016898D01*
X017409Y016696D01*
X017277Y016527D01*
X017098Y016410D01*
X016891Y016357D01*
X016677Y016375D01*
X016481Y016461D01*
X016324Y016606D01*
X016222Y016794D01*
X016187Y017005D01*
X010187Y017005D02*
X010222Y017216D01*
X010324Y017404D01*
X010481Y017549D01*
X010677Y017635D01*
X010891Y017653D01*
X011098Y017600D01*
X011277Y017483D01*
X011409Y017314D01*
X011478Y017112D01*
X011478Y016898D01*
X011409Y016696D01*
X011277Y016527D01*
X011098Y016410D01*
X010891Y016357D01*
X010677Y016375D01*
X010481Y016461D01*
X010324Y016606D01*
X010222Y016794D01*
X010187Y017005D01*
X010187Y026005D02*
X010222Y026216D01*
X010324Y026404D01*
X010481Y026549D01*
X010677Y026635D01*
X010891Y026653D01*
X011098Y026600D01*
X011277Y026483D01*
X011409Y026314D01*
X011478Y026112D01*
X011478Y025898D01*
X011409Y025696D01*
X011277Y025527D01*
X011098Y025410D01*
X010891Y025357D01*
X010677Y025375D01*
X010481Y025461D01*
X010324Y025606D01*
X010222Y025794D01*
X010187Y026005D01*
X016187Y026005D02*
X016222Y026216D01*
X016324Y026404D01*
X016481Y026549D01*
X016677Y026635D01*
X016891Y026653D01*
X017098Y026600D01*
X017277Y026483D01*
X017409Y026314D01*
X017478Y026112D01*
X017478Y025898D01*
X017409Y025696D01*
X017277Y025527D01*
X017098Y025410D01*
X016891Y025357D01*
X016677Y025375D01*
X016481Y025461D01*
X016324Y025606D01*
X016222Y025794D01*
X016187Y026005D01*
D13*
X014329Y021292D03*
X014132Y021292D03*
X013935Y021292D03*
X013738Y021292D03*
X013542Y021292D03*
X013345Y021292D03*
X013345Y019718D03*
X013542Y019718D03*
X013738Y019718D03*
X013935Y019718D03*
X014132Y019718D03*
X014329Y019718D03*
D14*
X014624Y020013D03*
X014624Y020210D03*
X014624Y020407D03*
X014624Y020603D03*
X014624Y020800D03*
X014624Y020997D03*
X013049Y020997D03*
X013049Y020800D03*
X013049Y020603D03*
X013049Y020407D03*
X013049Y020210D03*
X013049Y020013D03*
D15*
X013837Y020505D03*
D16*
X015502Y020005D03*
X016171Y020005D03*
X016171Y019505D03*
X015502Y019505D03*
X014171Y018505D03*
X013502Y018505D03*
X012171Y020005D03*
X011502Y020005D03*
X011502Y021005D03*
X012171Y021005D03*
X012171Y022005D03*
X011502Y022005D03*
X015002Y022005D03*
X015671Y022005D03*
X015502Y021005D03*
X016171Y021005D03*
X014171Y024505D03*
X013502Y024505D03*
X013502Y016505D03*
X014171Y016505D03*
D17*
X014270Y022218D03*
X014270Y022533D03*
X014270Y022848D03*
X014270Y023163D03*
X014270Y023477D03*
X014270Y023792D03*
X013404Y023792D03*
X013404Y023477D03*
X013404Y023163D03*
X013404Y022848D03*
X013404Y022533D03*
X013404Y022218D03*
D18*
X013837Y022178D03*
X013837Y023832D03*
D19*
X014349Y017879D03*
X014349Y017131D03*
X013325Y017131D03*
X013325Y017505D03*
X013325Y017879D03*
D20*
X012337Y018056D03*
X012337Y016954D03*
X015337Y016954D03*
X015337Y018056D03*
D21*
X010337Y018505D03*
X010337Y019505D03*
X010337Y020505D03*
X010337Y021505D03*
X010337Y022505D03*
X010337Y023505D03*
X010337Y024505D03*
D22*
X012157Y023525D03*
X011487Y023005D03*
X012877Y022165D03*
X012837Y021555D03*
X013517Y021765D03*
X014237Y021765D03*
X016437Y022005D03*
X016987Y020505D03*
X014877Y019525D03*
X014717Y019045D03*
X012937Y019125D03*
X012237Y019505D03*
X011387Y018705D03*
X012937Y016505D03*
X011937Y021505D03*
X015437Y024355D03*
D23*
X014749Y023792D02*
X014270Y023792D01*
X013849Y023792D01*
X013837Y023805D01*
X013837Y023832D01*
X013837Y024005D01*
X013837Y024245D01*
X013917Y024325D01*
X013997Y024325D01*
X014171Y024505D01*
X014749Y023792D02*
X014887Y023655D01*
X014937Y023605D01*
X015002Y023540D01*
X015002Y022005D01*
X014737Y022005D01*
X014587Y022155D01*
X014524Y022218D01*
X014270Y022218D01*
X014317Y022165D01*
X014317Y022085D01*
X014317Y021765D01*
X014237Y021765D01*
X014317Y021765D02*
X014317Y021445D01*
X014329Y021292D01*
X014624Y021242D02*
X014837Y021455D01*
X014987Y021605D01*
X016087Y021605D01*
X016437Y021955D01*
X016437Y022005D01*
X015502Y021005D02*
X015237Y021005D01*
X015137Y020905D01*
X015137Y020755D01*
X014985Y020603D01*
X014624Y020603D01*
X014624Y020407D02*
X015235Y020407D01*
X015237Y020405D01*
X014932Y020210D02*
X015137Y020005D01*
X015487Y020005D01*
X015502Y020005D01*
X015517Y019845D01*
X015517Y019685D01*
X015502Y019505D01*
X015502Y018870D01*
X015337Y018705D01*
X015337Y018655D01*
X015337Y018056D01*
X014888Y018056D01*
X014837Y018005D01*
X014711Y017879D01*
X014349Y017879D01*
X013837Y017755D02*
X013837Y017705D01*
X013837Y017255D01*
X013713Y017131D01*
X013325Y017131D01*
X012913Y017131D01*
X012887Y017105D01*
X012736Y016954D01*
X012337Y016954D01*
X011686Y017605D01*
X011587Y017605D01*
X010687Y018505D01*
X010337Y018505D01*
X011502Y019340D02*
X011737Y019105D01*
X012337Y019105D01*
X012387Y019105D01*
X013037Y019755D01*
X013049Y019768D01*
X013049Y020013D01*
X013049Y020210D02*
X012632Y020210D01*
X012537Y020305D01*
X012487Y020355D01*
X012387Y020455D01*
X011787Y020455D01*
X011502Y020740D01*
X011502Y021005D01*
X011937Y021505D02*
X012171Y021270D01*
X012171Y021005D01*
X012537Y021005D02*
X012537Y020955D01*
X012587Y020905D01*
X012692Y020800D01*
X013049Y020800D01*
X012537Y021005D02*
X012537Y021355D01*
X012487Y021405D01*
X012487Y021505D01*
X012171Y021820D01*
X012171Y022005D01*
X012877Y022165D02*
X013197Y022165D01*
X013404Y022218D01*
X013404Y022533D02*
X013476Y022605D01*
X013837Y022605D01*
X013887Y022605D01*
X014197Y022605D01*
X014270Y022533D01*
X013837Y022178D02*
X013837Y021905D01*
X013737Y021805D01*
X013697Y021765D01*
X013517Y021765D01*
X014624Y021242D02*
X014624Y020997D01*
X014624Y020800D02*
X014882Y020800D01*
X014937Y020855D01*
X014937Y021005D01*
X014987Y021055D01*
X014932Y020210D02*
X014624Y020210D01*
X014624Y020013D02*
X014624Y019792D01*
X014537Y019705D01*
X014537Y019255D01*
X014537Y019225D01*
X014557Y019205D01*
X014717Y019045D01*
X014329Y019197D02*
X014287Y019155D01*
X014257Y019125D01*
X012937Y019125D01*
X012237Y019505D02*
X012171Y019570D01*
X012171Y020005D01*
X011502Y020005D02*
X011502Y019340D01*
X013337Y018261D02*
X013337Y018105D01*
X013337Y018055D01*
X013337Y017891D01*
X013325Y017879D02*
X013713Y017879D01*
X013837Y017755D01*
X013337Y018261D02*
X013502Y018505D01*
X014329Y019197D02*
X014329Y019718D01*
X014877Y019525D02*
X015357Y019525D01*
X015502Y019505D01*
X014349Y017131D02*
X014349Y016917D01*
X014337Y016905D01*
X014157Y016725D01*
X014157Y016645D01*
X014171Y016505D01*
X013404Y023477D02*
X013197Y023525D01*
X012157Y023525D01*
X012449Y023792D02*
X012387Y023855D01*
X011937Y023855D01*
X011887Y023855D01*
X011537Y023505D01*
X010337Y023505D01*
X012449Y023792D02*
X013404Y023792D01*
M02*
