G75*
G70*
%OFA0B0*%
%FSLAX24Y24*%
%IPPOS*%
%LPD*%
%AMOC8*
5,1,8,0,0,1.08239X$1,22.5*
%
%ADD10C,0.0060*%
%ADD11C,0.0740*%
%ADD12C,0.0100*%
%ADD13C,0.0400*%
%ADD14C,0.0080*%
D10*
X017224Y022407D02*
X017167Y022464D01*
X017167Y022577D01*
X017224Y022634D01*
X017450Y022634D01*
X017507Y022577D01*
X017507Y022464D01*
X017450Y022407D01*
X017394Y022407D01*
X017337Y022464D01*
X017337Y022634D01*
X017167Y022775D02*
X017507Y023002D01*
X017450Y023143D02*
X017507Y023200D01*
X017507Y023314D01*
X017450Y023370D01*
X017394Y023370D01*
X017167Y023143D01*
X017167Y023370D01*
X017224Y023512D02*
X017167Y023568D01*
X017167Y023682D01*
X017224Y023739D01*
X017450Y023739D01*
X017224Y023512D01*
X017450Y023512D01*
X017507Y023568D01*
X017507Y023682D01*
X017450Y023739D01*
X017167Y023880D02*
X017507Y024107D01*
X017394Y024248D02*
X017507Y024362D01*
X017167Y024362D01*
X017167Y024475D02*
X017167Y024248D01*
X017224Y024617D02*
X017167Y024673D01*
X017167Y024787D01*
X017224Y024844D01*
X017450Y024844D01*
X017224Y024617D01*
X017450Y024617D01*
X017507Y024673D01*
X017507Y024787D01*
X017450Y024844D01*
D11*
X010337Y024505D03*
X010337Y023505D03*
X010337Y022505D03*
X010337Y021505D03*
X010337Y020505D03*
X010337Y019505D03*
X010337Y018505D03*
D12*
X011568Y016391D02*
X011370Y016225D01*
X016304Y016225D01*
X016106Y016391D01*
X015940Y016679D01*
X015940Y016679D01*
X015882Y017005D01*
X015882Y017005D01*
X015940Y017331D01*
X015940Y017331D01*
X016106Y017619D01*
X016106Y017619D01*
X016360Y017832D01*
X016671Y017945D01*
X016671Y017945D01*
X016750Y017945D01*
X016815Y017945D01*
X016837Y017945D01*
X016924Y017945D01*
X017003Y017945D01*
X017314Y017832D01*
X017314Y017832D01*
X017568Y017619D01*
X017617Y017534D01*
X017617Y022290D01*
X017590Y022264D01*
X017590Y022264D01*
X017533Y022207D01*
X017533Y022207D01*
X017533Y022207D01*
X017451Y022207D01*
X017395Y022207D01*
X017311Y022207D01*
X017311Y022207D01*
X017311Y022207D01*
X017309Y022209D01*
X017306Y022207D01*
X017141Y022207D01*
X017084Y022264D01*
X016967Y022381D01*
X016967Y022576D01*
X016967Y022660D01*
X016967Y022660D01*
X016989Y022682D01*
X016954Y022733D01*
X016987Y022896D01*
X017074Y022954D01*
X016967Y023061D01*
X016967Y023226D01*
X016967Y023453D01*
X016983Y023469D01*
X016967Y023486D01*
X016967Y023651D01*
X016967Y023683D01*
X016967Y023765D01*
X016967Y023765D01*
X016967Y023765D01*
X016989Y023787D01*
X016954Y023838D01*
X016987Y024001D01*
X017074Y024058D01*
X016967Y024166D01*
X016967Y024558D01*
X016983Y024574D01*
X016967Y024591D01*
X016967Y024756D01*
X016967Y024788D01*
X016967Y024870D01*
X016967Y024870D01*
X017024Y024926D01*
X017024Y024926D01*
X017082Y024985D01*
X017141Y025043D01*
X017141Y025043D01*
X017141Y025044D01*
X017223Y025044D01*
X017306Y025044D01*
X017306Y025044D01*
X017368Y025044D01*
X017533Y025044D01*
X017590Y024987D01*
X017590Y024987D01*
X017617Y024960D01*
X017617Y025476D01*
X017568Y025392D01*
X017568Y025391D01*
X017568Y025391D01*
X017314Y025178D01*
X017003Y025065D01*
X017003Y025065D01*
X016837Y025065D01*
X016750Y025065D01*
X016671Y025065D01*
X016360Y025178D01*
X016360Y025178D01*
X016106Y025391D01*
X015940Y025679D01*
X015940Y025679D01*
X015882Y026005D01*
X015882Y026005D01*
X015940Y026331D01*
X015940Y026331D01*
X016106Y026619D01*
X016106Y026619D01*
X016304Y026785D01*
X011370Y026785D01*
X011568Y026619D01*
X011734Y026331D01*
X011734Y026331D01*
X011791Y026005D01*
X011791Y026005D01*
X011734Y025679D01*
X011734Y025679D01*
X011568Y025392D01*
X011568Y025391D01*
X011568Y025391D01*
X011314Y025178D01*
X011003Y025065D01*
X011003Y025065D01*
X010837Y025065D01*
X010750Y025065D01*
X010671Y025065D01*
X010360Y025178D01*
X010360Y025178D01*
X010106Y025391D01*
X010057Y025476D01*
X010057Y024973D01*
X010229Y025045D01*
X010444Y025045D01*
X010643Y024963D01*
X010795Y024811D01*
X010834Y024715D01*
X011100Y024715D01*
X011274Y024715D01*
X012094Y023895D01*
X012230Y023895D01*
X012366Y023839D01*
X012470Y023735D01*
X012527Y023599D01*
X012527Y023451D01*
X012470Y023315D01*
X012366Y023211D01*
X012230Y023155D01*
X012083Y023155D01*
X011947Y023211D01*
X011843Y023315D01*
X011787Y023451D01*
X011787Y023599D01*
X011790Y023605D01*
X011100Y024295D01*
X010834Y024295D01*
X010795Y024199D01*
X010643Y024047D01*
X010541Y024005D01*
X010643Y023963D01*
X010795Y023811D01*
X010877Y023612D01*
X010877Y023398D01*
X010795Y023199D01*
X010643Y023047D01*
X010541Y023005D01*
X010643Y022963D01*
X010795Y022811D01*
X010834Y022715D01*
X016150Y022715D01*
X016324Y022715D01*
X016497Y022542D01*
X016647Y022392D01*
X016647Y022318D01*
X016750Y022215D01*
X016807Y022079D01*
X016807Y021931D01*
X016750Y021795D01*
X016646Y021691D01*
X016510Y021635D01*
X016363Y021635D01*
X016227Y021691D01*
X016123Y021795D01*
X016067Y021931D01*
X016067Y022079D01*
X016123Y022215D01*
X016177Y022268D01*
X016150Y022295D01*
X013223Y022295D01*
X013247Y022239D01*
X013247Y022091D01*
X013190Y021955D01*
X013086Y021851D01*
X012950Y021795D01*
X012803Y021795D01*
X012667Y021851D01*
X012564Y021955D01*
X011884Y021955D01*
X011824Y021895D01*
X011762Y021833D01*
X011863Y021875D01*
X012010Y021875D01*
X012146Y021819D01*
X012250Y021715D01*
X012307Y021579D01*
X012307Y021432D01*
X012727Y021012D01*
X012727Y021192D01*
X012850Y021315D01*
X012870Y021335D01*
X012870Y021335D01*
X012977Y021442D01*
X012977Y021442D01*
X013100Y021565D01*
X013199Y021565D01*
X013147Y021691D01*
X013147Y021839D01*
X013203Y021975D01*
X013307Y022079D01*
X013443Y022135D01*
X013590Y022135D01*
X013750Y022295D01*
X013924Y022295D01*
X014484Y022295D01*
X014607Y022172D01*
X015407Y021372D01*
X015407Y021198D01*
X015407Y019278D01*
X015284Y019155D01*
X015077Y018949D01*
X015030Y018835D01*
X014926Y018731D01*
X014790Y018675D01*
X014643Y018675D01*
X014507Y018731D01*
X014403Y018835D01*
X014347Y018971D01*
X014347Y019119D01*
X014403Y019255D01*
X014464Y019315D01*
X013454Y019315D01*
X013280Y019315D01*
X012937Y019658D01*
X012697Y019418D01*
X012614Y019335D01*
X012624Y019335D01*
X012727Y019439D01*
X012863Y019495D01*
X013010Y019495D01*
X013146Y019439D01*
X013250Y019335D01*
X013307Y019199D01*
X013307Y019051D01*
X013250Y018915D01*
X013146Y018811D01*
X013010Y018755D01*
X012863Y018755D01*
X012727Y018811D01*
X012624Y018915D01*
X011904Y018915D01*
X011730Y018915D01*
X011200Y019445D01*
X011077Y019568D01*
X011077Y021568D01*
X011077Y021742D01*
X011527Y022192D01*
X011630Y022295D01*
X010834Y022295D01*
X010795Y022199D01*
X010643Y022047D01*
X010541Y022005D01*
X010643Y021963D01*
X010795Y021811D01*
X010877Y021612D01*
X010877Y021398D01*
X010795Y021199D01*
X010643Y021047D01*
X010541Y021005D01*
X010643Y020963D01*
X010795Y020811D01*
X010877Y020612D01*
X010877Y020398D01*
X010795Y020199D01*
X010643Y020047D01*
X010515Y019994D01*
X010631Y019946D01*
X010778Y019800D01*
X010857Y019608D01*
X010857Y019555D01*
X010387Y019555D01*
X010387Y019455D01*
X010857Y019455D01*
X010857Y019402D01*
X010778Y019210D01*
X010631Y019064D01*
X010515Y019016D01*
X010643Y018963D01*
X010795Y018811D01*
X010877Y018612D01*
X010877Y018398D01*
X010795Y018199D01*
X010643Y018047D01*
X010444Y017965D01*
X010229Y017965D01*
X010057Y018037D01*
X010057Y017534D01*
X010106Y017619D01*
X010106Y017619D01*
X010360Y017832D01*
X010671Y017945D01*
X010671Y017945D01*
X010750Y017945D01*
X010809Y017945D01*
X010837Y017945D01*
X010924Y017945D01*
X011003Y017945D01*
X011314Y017832D01*
X011314Y017832D01*
X011568Y017619D01*
X011734Y017331D01*
X011734Y017331D01*
X011791Y017005D01*
X011791Y017005D01*
X011734Y016679D01*
X011734Y016679D01*
X011568Y016392D01*
X011568Y016391D01*
X011568Y016391D01*
X011572Y016399D02*
X016101Y016399D01*
X016044Y016498D02*
X011629Y016498D01*
X011686Y016596D02*
X015987Y016596D01*
X015937Y016695D02*
X011737Y016695D01*
X011754Y016793D02*
X015920Y016793D01*
X015902Y016892D02*
X011771Y016892D01*
X011789Y016990D02*
X015885Y016990D01*
X015897Y017089D02*
X011776Y017089D01*
X011759Y017188D02*
X015915Y017188D01*
X015932Y017286D02*
X011742Y017286D01*
X011703Y017385D02*
X015971Y017385D01*
X016028Y017483D02*
X011646Y017483D01*
X011589Y017582D02*
X016084Y017582D01*
X016106Y017619D02*
X016106Y017619D01*
X016179Y017680D02*
X011494Y017680D01*
X011377Y017779D02*
X016297Y017779D01*
X016485Y017877D02*
X011188Y017877D01*
X010768Y018173D02*
X017617Y018173D01*
X017617Y018074D02*
X010670Y018074D01*
X010470Y017976D02*
X017617Y017976D01*
X017617Y017877D02*
X017188Y017877D01*
X017377Y017779D02*
X017617Y017779D01*
X017617Y017680D02*
X017494Y017680D01*
X017589Y017582D02*
X017617Y017582D01*
X017617Y018272D02*
X010825Y018272D01*
X010865Y018370D02*
X017617Y018370D01*
X017617Y018469D02*
X010877Y018469D01*
X010877Y018567D02*
X017617Y018567D01*
X017617Y018666D02*
X010855Y018666D01*
X010814Y018764D02*
X012841Y018764D01*
X013033Y018764D02*
X014474Y018764D01*
X014392Y018863D02*
X013198Y018863D01*
X013269Y018961D02*
X014351Y018961D01*
X014347Y019060D02*
X013307Y019060D01*
X013307Y019158D02*
X014363Y019158D01*
X014406Y019257D02*
X013283Y019257D01*
X013239Y019356D02*
X013230Y019356D01*
X013141Y019454D02*
X013109Y019454D01*
X013042Y019553D02*
X012831Y019553D01*
X012764Y019454D02*
X012733Y019454D01*
X012644Y019356D02*
X012634Y019356D01*
X012930Y019651D02*
X012944Y019651D01*
X012676Y018863D02*
X010743Y018863D01*
X010644Y018961D02*
X011684Y018961D01*
X011585Y019060D02*
X010621Y019060D01*
X010726Y019158D02*
X011486Y019158D01*
X011388Y019257D02*
X010797Y019257D01*
X010838Y019356D02*
X011289Y019356D01*
X011191Y019454D02*
X010857Y019454D01*
X010839Y019651D02*
X011077Y019651D01*
X011077Y019750D02*
X010798Y019750D01*
X010729Y019848D02*
X011077Y019848D01*
X011077Y019947D02*
X010629Y019947D01*
X010638Y020045D02*
X011077Y020045D01*
X011077Y020144D02*
X010739Y020144D01*
X010813Y020242D02*
X011077Y020242D01*
X011077Y020341D02*
X010853Y020341D01*
X010877Y020439D02*
X011077Y020439D01*
X011077Y020538D02*
X010877Y020538D01*
X010867Y020637D02*
X011077Y020637D01*
X011077Y020735D02*
X010826Y020735D01*
X010772Y020834D02*
X011077Y020834D01*
X011077Y020932D02*
X010673Y020932D01*
X010603Y021031D02*
X011077Y021031D01*
X011077Y021129D02*
X010725Y021129D01*
X010806Y021228D02*
X011077Y021228D01*
X011077Y021326D02*
X010847Y021326D01*
X010877Y021425D02*
X011077Y021425D01*
X011077Y021523D02*
X010877Y021523D01*
X010873Y021622D02*
X011077Y021622D01*
X011077Y021721D02*
X010832Y021721D01*
X010786Y021819D02*
X011154Y021819D01*
X011252Y021918D02*
X010688Y021918D01*
X010568Y022016D02*
X011351Y022016D01*
X011450Y022115D02*
X010710Y022115D01*
X010800Y022213D02*
X011548Y022213D01*
X011846Y021918D02*
X012601Y021918D01*
X012745Y021819D02*
X012145Y021819D01*
X012245Y021721D02*
X013147Y021721D01*
X013147Y021819D02*
X013008Y021819D01*
X013153Y021918D02*
X013180Y021918D01*
X013216Y022016D02*
X013245Y022016D01*
X013247Y022115D02*
X013394Y022115D01*
X013247Y022213D02*
X013668Y022213D01*
X013176Y021622D02*
X012289Y021622D01*
X012307Y021523D02*
X013058Y021523D01*
X012960Y021425D02*
X012314Y021425D01*
X012412Y021326D02*
X012861Y021326D01*
X012763Y021228D02*
X012511Y021228D01*
X012610Y021129D02*
X012727Y021129D01*
X012727Y021031D02*
X012708Y021031D01*
X014566Y022213D02*
X016123Y022213D01*
X016082Y022115D02*
X014664Y022115D01*
X014763Y022016D02*
X016067Y022016D01*
X016073Y021918D02*
X014861Y021918D01*
X014960Y021819D02*
X016113Y021819D01*
X016198Y021721D02*
X015058Y021721D01*
X015157Y021622D02*
X017617Y021622D01*
X017617Y021721D02*
X016676Y021721D01*
X016760Y021819D02*
X017617Y021819D01*
X017617Y021918D02*
X016801Y021918D01*
X016807Y022016D02*
X017617Y022016D01*
X017617Y022115D02*
X016792Y022115D01*
X016751Y022213D02*
X017134Y022213D01*
X017036Y022312D02*
X016653Y022312D01*
X016628Y022410D02*
X016967Y022410D01*
X016967Y022509D02*
X016530Y022509D01*
X016431Y022607D02*
X016967Y022607D01*
X016967Y022660D02*
X016967Y022660D01*
X016973Y022706D02*
X016333Y022706D01*
X016969Y022805D02*
X010797Y022805D01*
X010702Y022903D02*
X016998Y022903D01*
X017026Y023002D02*
X010549Y023002D01*
X010696Y023100D02*
X016967Y023100D01*
X016967Y023199D02*
X012336Y023199D01*
X012452Y023297D02*
X016967Y023297D01*
X016967Y023396D02*
X012504Y023396D01*
X012527Y023494D02*
X016967Y023494D01*
X016967Y023593D02*
X012527Y023593D01*
X012488Y023691D02*
X016967Y023691D01*
X016987Y023790D02*
X012415Y023790D01*
X012246Y023889D02*
X016965Y023889D01*
X016984Y023987D02*
X012002Y023987D01*
X011903Y024086D02*
X017047Y024086D01*
X016967Y024184D02*
X011805Y024184D01*
X011706Y024283D02*
X016967Y024283D01*
X016967Y024381D02*
X011608Y024381D01*
X011509Y024480D02*
X016967Y024480D01*
X016979Y024578D02*
X011411Y024578D01*
X011312Y024677D02*
X016967Y024677D01*
X016967Y024775D02*
X010809Y024775D01*
X010732Y024874D02*
X016971Y024874D01*
X016967Y024870D02*
X016967Y024870D01*
X017070Y024972D02*
X010619Y024972D01*
X010655Y025071D02*
X010057Y025071D01*
X010057Y025170D02*
X010384Y025170D01*
X010253Y025268D02*
X010057Y025268D01*
X010057Y025367D02*
X010135Y025367D01*
X010063Y025465D02*
X010057Y025465D01*
X011019Y025071D02*
X016655Y025071D01*
X016384Y025170D02*
X011290Y025170D01*
X011421Y025268D02*
X016253Y025268D01*
X016135Y025367D02*
X011538Y025367D01*
X011611Y025465D02*
X016063Y025465D01*
X016006Y025564D02*
X011667Y025564D01*
X011724Y025662D02*
X015949Y025662D01*
X015925Y025761D02*
X011748Y025761D01*
X011766Y025859D02*
X015908Y025859D01*
X015891Y025958D02*
X011783Y025958D01*
X011782Y026056D02*
X015891Y026056D01*
X015909Y026155D02*
X011765Y026155D01*
X011747Y026254D02*
X015926Y026254D01*
X015952Y026352D02*
X011722Y026352D01*
X011665Y026451D02*
X016009Y026451D01*
X016066Y026549D02*
X011608Y026549D01*
X011533Y026648D02*
X016141Y026648D01*
X016106Y026619D02*
X016106Y026619D01*
X016258Y026746D02*
X011416Y026746D01*
X011112Y024283D02*
X010829Y024283D01*
X010780Y024184D02*
X011211Y024184D01*
X011309Y024086D02*
X010681Y024086D01*
X010584Y023987D02*
X011408Y023987D01*
X011506Y023889D02*
X010717Y023889D01*
X010803Y023790D02*
X011605Y023790D01*
X011703Y023691D02*
X010844Y023691D01*
X010877Y023593D02*
X011787Y023593D01*
X011787Y023494D02*
X010877Y023494D01*
X010876Y023396D02*
X011810Y023396D01*
X011861Y023297D02*
X010835Y023297D01*
X010794Y023199D02*
X011978Y023199D01*
X015255Y021523D02*
X017617Y021523D01*
X017617Y021425D02*
X015354Y021425D01*
X015407Y021326D02*
X017617Y021326D01*
X017617Y021228D02*
X015407Y021228D01*
X015407Y021129D02*
X017617Y021129D01*
X017617Y021031D02*
X015407Y021031D01*
X015407Y020932D02*
X017617Y020932D01*
X017617Y020834D02*
X015407Y020834D01*
X015407Y020735D02*
X017617Y020735D01*
X017617Y020637D02*
X015407Y020637D01*
X015407Y020538D02*
X017617Y020538D01*
X017617Y020439D02*
X015407Y020439D01*
X015407Y020341D02*
X017617Y020341D01*
X017617Y020242D02*
X015407Y020242D01*
X015407Y020144D02*
X017617Y020144D01*
X017617Y020045D02*
X015407Y020045D01*
X015407Y019947D02*
X017617Y019947D01*
X017617Y019848D02*
X015407Y019848D01*
X015407Y019750D02*
X017617Y019750D01*
X017617Y019651D02*
X015407Y019651D01*
X015407Y019553D02*
X017617Y019553D01*
X017617Y019454D02*
X015407Y019454D01*
X015407Y019356D02*
X017617Y019356D01*
X017617Y019257D02*
X015386Y019257D01*
X015287Y019158D02*
X017617Y019158D01*
X017617Y019060D02*
X015189Y019060D01*
X015090Y018961D02*
X017617Y018961D01*
X017617Y018863D02*
X015042Y018863D01*
X014959Y018764D02*
X017617Y018764D01*
X016214Y016301D02*
X011460Y016301D01*
X010084Y017582D02*
X010057Y017582D01*
X010106Y017619D02*
X010106Y017619D01*
X010057Y017680D02*
X010179Y017680D01*
X010297Y017779D02*
X010057Y017779D01*
X010057Y017877D02*
X010485Y017877D01*
X010203Y017976D02*
X010057Y017976D01*
X010387Y019553D02*
X011092Y019553D01*
X017540Y022213D02*
X017617Y022213D01*
X017604Y024972D02*
X017617Y024972D01*
X017617Y025071D02*
X017019Y025071D01*
X017290Y025170D02*
X017617Y025170D01*
X017617Y025268D02*
X017421Y025268D01*
X017538Y025367D02*
X017617Y025367D01*
X017610Y025465D02*
X017617Y025465D01*
D13*
X015437Y024355D03*
X012157Y023525D03*
X011487Y023005D03*
X012877Y022165D03*
X012837Y021555D03*
X013517Y021765D03*
X014237Y021765D03*
X016437Y022005D03*
X016987Y020505D03*
X014877Y019525D03*
X014717Y019045D03*
X012937Y019125D03*
X012237Y019505D03*
X011387Y018705D03*
X012937Y016505D03*
X011937Y021505D03*
D14*
X012087Y021355D01*
X012937Y020505D01*
X012937Y021105D01*
X012957Y021125D01*
X013187Y021355D01*
X013787Y021355D01*
X014187Y021755D01*
X014197Y021765D01*
X014237Y021765D01*
X014397Y022085D02*
X013837Y022085D01*
X013517Y021765D01*
X012877Y022165D02*
X011797Y022165D01*
X011737Y022105D01*
X011287Y021655D01*
X011287Y019655D01*
X011817Y019125D01*
X012987Y019125D01*
X012937Y019125D01*
X013367Y019525D02*
X013037Y019855D01*
X012987Y019905D01*
X012937Y019955D01*
X012487Y019505D01*
X012237Y019505D01*
X012937Y019955D02*
X012937Y020505D01*
X013367Y019525D02*
X014877Y019525D01*
X015197Y019365D02*
X015197Y021285D01*
X014397Y022085D01*
X016237Y022505D02*
X016287Y022455D01*
X016437Y022305D01*
X016437Y022005D01*
X016237Y022505D02*
X010337Y022505D01*
X012137Y023555D02*
X011187Y024505D01*
X010337Y024505D01*
X012137Y023555D02*
X012157Y023535D01*
X012157Y023525D01*
X015197Y019365D02*
X014877Y019045D01*
X014717Y019045D01*
M02*
