G75*
G70*
%OFA0B0*%
%FSLAX24Y24*%
%IPPOS*%
%LPD*%
%AMOC8*
5,1,8,0,0,1.08239X$1,22.5*
%
%ADD10C,0.0060*%
%ADD11C,0.0080*%
%ADD12C,0.0220*%
%ADD13C,0.0050*%
%ADD14R,0.0180X0.0300*%
%ADD15C,0.0010*%
D10*
X011080Y018335D02*
X011194Y018448D01*
X011194Y018675D01*
X011335Y018619D02*
X011335Y018392D01*
X011392Y018335D01*
X011505Y018335D01*
X011562Y018392D01*
X011703Y018392D02*
X011703Y018619D01*
X011760Y018675D01*
X011874Y018675D01*
X011930Y018619D01*
X011930Y018392D02*
X011874Y018335D01*
X011760Y018335D01*
X011703Y018392D01*
X011562Y018619D02*
X011505Y018675D01*
X011392Y018675D01*
X011335Y018619D01*
X010967Y018675D02*
X010967Y018448D01*
X011080Y018335D01*
X011024Y019335D02*
X011137Y019335D01*
X011194Y019392D01*
X011194Y019505D01*
X011080Y019505D01*
X010967Y019392D02*
X011024Y019335D01*
X010967Y019392D02*
X010967Y019619D01*
X011024Y019675D01*
X011137Y019675D01*
X011194Y019619D01*
X011335Y019675D02*
X011562Y019335D01*
X011562Y019675D01*
X011703Y019675D02*
X011874Y019675D01*
X011930Y019619D01*
X011930Y019392D01*
X011874Y019335D01*
X011703Y019335D01*
X011703Y019675D01*
X011335Y019675D02*
X011335Y019335D01*
X011335Y020335D02*
X011505Y020335D01*
X011562Y020392D01*
X011562Y020619D01*
X011505Y020675D01*
X011335Y020675D01*
X011335Y020335D01*
X011194Y020392D02*
X011137Y020335D01*
X011024Y020335D01*
X010967Y020392D01*
X011024Y020505D02*
X011137Y020505D01*
X011194Y020448D01*
X011194Y020392D01*
X011024Y020505D02*
X010967Y020562D01*
X010967Y020619D01*
X011024Y020675D01*
X011137Y020675D01*
X011194Y020619D01*
X011703Y020562D02*
X011703Y020335D01*
X011703Y020505D02*
X011930Y020505D01*
X011930Y020562D02*
X011930Y020335D01*
X011930Y020562D02*
X011817Y020675D01*
X011703Y020562D01*
X011703Y021335D02*
X011930Y021335D01*
X011703Y021335D02*
X011703Y021675D01*
X011562Y021619D02*
X011505Y021675D01*
X011392Y021675D01*
X011335Y021619D01*
X011335Y021392D01*
X011392Y021335D01*
X011505Y021335D01*
X011562Y021392D01*
X011194Y021392D02*
X011137Y021335D01*
X011024Y021335D01*
X010967Y021392D01*
X011024Y021505D02*
X011137Y021505D01*
X011194Y021448D01*
X011194Y021392D01*
X011024Y021505D02*
X010967Y021562D01*
X010967Y021619D01*
X011024Y021675D01*
X011137Y021675D01*
X011194Y021619D01*
X011212Y022335D02*
X011212Y022675D01*
X011326Y022562D01*
X011439Y022675D01*
X011439Y022335D01*
X011581Y022392D02*
X011637Y022335D01*
X011751Y022335D01*
X011808Y022392D01*
X011808Y022675D01*
X011949Y022675D02*
X012062Y022675D01*
X012006Y022675D02*
X012006Y022335D01*
X012062Y022335D02*
X011949Y022335D01*
X012194Y022335D02*
X012194Y022675D01*
X012421Y022335D01*
X012421Y022675D01*
X012563Y022675D02*
X012790Y022675D01*
X012676Y022675D02*
X012676Y022335D01*
X011581Y022392D02*
X011581Y022675D01*
X011080Y022675D02*
X010967Y022675D01*
X011024Y022675D02*
X011024Y022335D01*
X011080Y022335D02*
X010967Y022335D01*
X010967Y023335D02*
X010967Y023562D01*
X011080Y023675D01*
X011194Y023562D01*
X011194Y023335D01*
X011335Y023335D02*
X011562Y023562D01*
X011703Y023675D02*
X011817Y023675D01*
X011760Y023675D02*
X011760Y023335D01*
X011703Y023335D02*
X011817Y023335D01*
X011949Y023335D02*
X011949Y023675D01*
X012176Y023335D01*
X012176Y023675D01*
X012317Y023675D02*
X012544Y023675D01*
X012431Y023675D02*
X012431Y023335D01*
X012686Y023335D02*
X012912Y023335D01*
X012799Y023335D02*
X012799Y023675D01*
X012686Y023562D01*
X012686Y024335D02*
X012912Y024562D01*
X012912Y024619D01*
X012856Y024675D01*
X012742Y024675D01*
X012686Y024619D01*
X012544Y024675D02*
X012317Y024675D01*
X012431Y024675D02*
X012431Y024335D01*
X012686Y024335D02*
X012912Y024335D01*
X013024Y025035D02*
X012967Y025092D01*
X013194Y025319D01*
X013194Y025092D01*
X013137Y025035D01*
X013024Y025035D01*
X012967Y025092D02*
X012967Y025319D01*
X013024Y025375D01*
X013137Y025375D01*
X013194Y025319D01*
X013336Y025319D02*
X013392Y025375D01*
X013506Y025375D01*
X013562Y025319D01*
X013336Y025092D01*
X013392Y025035D01*
X013506Y025035D01*
X013562Y025092D01*
X013562Y025319D01*
X013704Y025319D02*
X013761Y025375D01*
X013874Y025375D01*
X013931Y025319D01*
X013704Y025092D01*
X013761Y025035D01*
X013874Y025035D01*
X013931Y025092D01*
X013931Y025319D01*
X013704Y025319D02*
X013704Y025092D01*
X013336Y025092D02*
X013336Y025319D01*
X012826Y025319D02*
X012826Y025262D01*
X012769Y025205D01*
X012826Y025148D01*
X012826Y025092D01*
X012769Y025035D01*
X012656Y025035D01*
X012599Y025092D01*
X012458Y025092D02*
X012401Y025035D01*
X012287Y025035D01*
X012231Y025092D01*
X012231Y025375D01*
X012089Y025375D02*
X012089Y025035D01*
X011862Y025035D02*
X011862Y025375D01*
X011976Y025262D01*
X012089Y025375D01*
X011730Y025375D02*
X011617Y025375D01*
X011674Y025375D02*
X011674Y025035D01*
X011730Y025035D02*
X011617Y025035D01*
X011703Y024675D02*
X011817Y024675D01*
X011760Y024675D02*
X011760Y024335D01*
X011703Y024335D02*
X011817Y024335D01*
X011949Y024335D02*
X011949Y024675D01*
X012176Y024335D01*
X012176Y024675D01*
X012458Y025092D02*
X012458Y025375D01*
X012599Y025319D02*
X012656Y025375D01*
X012769Y025375D01*
X012826Y025319D01*
X012769Y025205D02*
X012712Y025205D01*
X011562Y024562D02*
X011335Y024335D01*
X011194Y024335D02*
X011194Y024562D01*
X011080Y024675D01*
X010967Y024562D01*
X010967Y024335D01*
X010967Y024505D02*
X011194Y024505D01*
X011335Y024562D02*
X011562Y024335D01*
X011335Y023562D02*
X011562Y023335D01*
X011194Y023505D02*
X010967Y023505D01*
X014441Y025092D02*
X014497Y025035D01*
X014611Y025035D01*
X014667Y025092D01*
X014809Y025092D02*
X014866Y025035D01*
X014979Y025035D01*
X015036Y025092D01*
X015036Y025205D01*
X014979Y025262D01*
X014866Y025262D01*
X014809Y025205D01*
X014809Y025092D01*
X014667Y025319D02*
X014611Y025375D01*
X014497Y025375D01*
X014441Y025319D01*
X014441Y025092D01*
X015177Y025035D02*
X015177Y025262D01*
X015234Y025262D01*
X015291Y025205D01*
X015347Y025262D01*
X015404Y025205D01*
X015404Y025035D01*
X015291Y025035D02*
X015291Y025205D01*
X015545Y025262D02*
X015716Y025262D01*
X015772Y025205D01*
X015772Y025092D01*
X015716Y025035D01*
X015545Y025035D01*
X015545Y025375D01*
X015914Y025205D02*
X015914Y025092D01*
X015970Y025035D01*
X016084Y025035D01*
X016141Y025092D01*
X016141Y025205D01*
X016084Y025262D01*
X015970Y025262D01*
X015914Y025205D01*
D11*
X012652Y016521D02*
X012022Y016521D01*
X011864Y016678D01*
X011864Y017111D01*
X012809Y017111D02*
X012809Y016678D01*
X012652Y016521D01*
X013668Y016945D02*
X014006Y016945D01*
X014156Y017399D02*
X014156Y017611D01*
X014006Y018065D02*
X013668Y018065D01*
X012809Y017899D02*
X012809Y018489D01*
X011864Y018489D01*
X011864Y017899D01*
X010837Y018255D02*
X010837Y018755D01*
X010587Y019005D01*
X010837Y019255D01*
X010837Y019755D01*
X010587Y020005D01*
X010837Y020255D01*
X010837Y020755D01*
X010587Y021005D01*
X010837Y021255D01*
X010837Y021755D01*
X010587Y022005D01*
X010837Y022255D01*
X010837Y022755D01*
X010587Y023005D01*
X010837Y023255D01*
X010837Y023755D01*
X010587Y024005D01*
X010837Y024255D01*
X010837Y024755D01*
X010587Y025005D01*
X010087Y025005D01*
X009837Y024755D01*
X009837Y024255D01*
X010087Y024005D01*
X009837Y023755D01*
X009837Y023255D01*
X010087Y023005D01*
X009837Y022755D01*
X009837Y022255D01*
X010087Y022005D01*
X009837Y021755D01*
X009837Y021255D01*
X010087Y021005D01*
X009837Y020755D01*
X009837Y020255D01*
X010087Y020005D01*
X009837Y019755D01*
X009837Y019255D01*
X010087Y019005D01*
X009837Y018755D01*
X009837Y018255D01*
X010087Y018005D01*
X010587Y018005D01*
X010837Y018255D01*
X013049Y019855D02*
X013187Y019718D01*
X014486Y019718D02*
X014624Y019718D01*
X014624Y019855D01*
X014624Y021155D02*
X014624Y021292D01*
X014486Y021292D01*
X014427Y022021D02*
X014112Y022021D01*
X013561Y022021D02*
X013246Y022021D01*
X013187Y021292D02*
X013049Y021292D01*
X013049Y021155D01*
X013798Y022611D02*
X013809Y022639D01*
X013837Y022650D01*
X013865Y022639D01*
X013876Y022611D01*
X013865Y022583D01*
X013837Y022572D01*
X013809Y022583D01*
X013798Y022611D01*
X013561Y023989D02*
X013246Y023989D01*
X014112Y023989D02*
X014427Y023989D01*
X015022Y018489D02*
X014864Y018332D01*
X014864Y017899D01*
X015022Y018489D02*
X015652Y018489D01*
X015809Y018332D01*
X015809Y017899D01*
X015809Y017111D02*
X015809Y016521D01*
X014864Y016521D01*
X014864Y017111D01*
D12*
X013837Y016517D02*
X013837Y016493D01*
X013837Y018493D02*
X013837Y018517D01*
X015837Y019493D02*
X015837Y019517D01*
X015837Y019993D02*
X015837Y020017D01*
X015837Y020993D02*
X015837Y021017D01*
X015337Y021993D02*
X015337Y022017D01*
X011837Y021993D02*
X011837Y022017D01*
X013837Y024493D02*
X013837Y024517D01*
D13*
X014937Y017655D02*
X015737Y017655D01*
X012737Y017355D02*
X011937Y017355D01*
D14*
X011837Y020005D03*
X011837Y021005D03*
D15*
X013837Y025506D02*
X014029Y025722D01*
X014063Y025753D01*
X014103Y025777D01*
X014118Y025782D01*
X014133Y025785D01*
X014223Y025785D01*
X014277Y025790D01*
X014328Y025804D01*
X013837Y025804D01*
X013837Y025796D02*
X014297Y025796D01*
X014328Y025804D02*
X014377Y025828D01*
X014422Y025860D01*
X014463Y025898D01*
X013837Y025898D01*
X013837Y025890D02*
X014454Y025890D01*
X014463Y025898D02*
X014498Y025942D01*
X014535Y026008D01*
X014560Y026080D01*
X014571Y026155D01*
X014569Y026231D01*
X014561Y026272D01*
X014547Y026311D01*
X014527Y026348D01*
X014491Y026393D01*
X014447Y026429D01*
X014447Y026394D01*
X014446Y026388D01*
X014444Y026383D01*
X014432Y026369D01*
X014417Y026358D01*
X014409Y026355D01*
X014386Y026353D01*
X014364Y026357D01*
X014344Y026367D01*
X014308Y026393D01*
X014291Y026407D01*
X014277Y026424D01*
X014265Y026443D01*
X014257Y026463D01*
X014254Y026476D01*
X014255Y026489D01*
X014261Y026511D01*
X014273Y026530D01*
X014290Y026545D01*
X014310Y026556D01*
X014111Y026556D01*
X014115Y026560D02*
X014088Y026534D01*
X014071Y026510D01*
X014060Y026483D01*
X014057Y026454D01*
X014061Y026425D01*
X014072Y026398D01*
X014119Y026329D01*
X014176Y026268D01*
X014191Y026250D01*
X014201Y026229D01*
X014205Y026206D01*
X014570Y026206D01*
X014569Y026214D02*
X014204Y026214D01*
X014205Y026206D02*
X014203Y026183D01*
X014196Y026161D01*
X014183Y026142D01*
X014165Y026127D01*
X014143Y026115D01*
X014119Y026107D01*
X014094Y026103D01*
X014065Y026104D01*
X014037Y026113D01*
X014012Y026128D01*
X013999Y026142D01*
X013990Y026159D01*
X013986Y026177D01*
X013986Y026195D01*
X013990Y026212D01*
X013993Y026219D01*
X013999Y026224D01*
X014032Y026248D01*
X014038Y026251D01*
X014045Y026253D01*
X014052Y026252D01*
X014033Y026255D01*
X013996Y026258D01*
X013959Y026255D01*
X013931Y026248D01*
X013906Y026235D01*
X013883Y026218D01*
X013865Y026196D01*
X013849Y026167D01*
X013840Y026136D01*
X013837Y026103D01*
X013837Y025506D01*
X013837Y025514D02*
X013844Y025514D01*
X013837Y025522D02*
X013851Y025522D01*
X013859Y025531D02*
X013837Y025531D01*
X013837Y025539D02*
X013866Y025539D01*
X013874Y025548D02*
X013837Y025548D01*
X013837Y025556D02*
X013882Y025556D01*
X013889Y025565D02*
X013837Y025565D01*
X013837Y025574D02*
X013897Y025574D01*
X013904Y025582D02*
X013837Y025582D01*
X013837Y025591D02*
X013912Y025591D01*
X013920Y025599D02*
X013837Y025599D01*
X013837Y025608D02*
X013927Y025608D01*
X013935Y025616D02*
X013837Y025616D01*
X013837Y025625D02*
X013942Y025625D01*
X013950Y025633D02*
X013837Y025633D01*
X013837Y025642D02*
X013958Y025642D01*
X013965Y025650D02*
X013837Y025650D01*
X013837Y025659D02*
X013973Y025659D01*
X013980Y025668D02*
X013837Y025668D01*
X013837Y025676D02*
X013988Y025676D01*
X013996Y025685D02*
X013837Y025685D01*
X013837Y025693D02*
X014003Y025693D01*
X014011Y025702D02*
X013837Y025702D01*
X013837Y025710D02*
X014018Y025710D01*
X014026Y025719D02*
X013837Y025719D01*
X013837Y025727D02*
X014035Y025727D01*
X014044Y025736D02*
X013837Y025736D01*
X013837Y025744D02*
X014053Y025744D01*
X014063Y025753D02*
X013837Y025753D01*
X013837Y025761D02*
X014077Y025761D01*
X014091Y025770D02*
X013837Y025770D01*
X013837Y025779D02*
X014107Y025779D01*
X014246Y025787D02*
X013837Y025787D01*
X013837Y025813D02*
X014346Y025813D01*
X014363Y025821D02*
X013837Y025821D01*
X013837Y025830D02*
X014379Y025830D01*
X014392Y025838D02*
X013837Y025838D01*
X013837Y025847D02*
X014404Y025847D01*
X014416Y025855D02*
X013837Y025855D01*
X013837Y025864D02*
X014426Y025864D01*
X014436Y025873D02*
X013837Y025873D01*
X013837Y025881D02*
X014445Y025881D01*
X014470Y025907D02*
X013837Y025907D01*
X013837Y025915D02*
X014476Y025915D01*
X014483Y025924D02*
X013837Y025924D01*
X013837Y025932D02*
X014490Y025932D01*
X014497Y025941D02*
X013837Y025941D01*
X013837Y025949D02*
X014502Y025949D01*
X014507Y025958D02*
X013837Y025958D01*
X013837Y025967D02*
X014512Y025967D01*
X014516Y025975D02*
X013837Y025975D01*
X013837Y025984D02*
X014521Y025984D01*
X014526Y025992D02*
X013837Y025992D01*
X013837Y026001D02*
X014531Y026001D01*
X014535Y026009D02*
X013837Y026009D01*
X013837Y026018D02*
X014538Y026018D01*
X014541Y026026D02*
X013837Y026026D01*
X013837Y026035D02*
X014544Y026035D01*
X014547Y026043D02*
X013837Y026043D01*
X013837Y026052D02*
X014550Y026052D01*
X014553Y026061D02*
X013837Y026061D01*
X013837Y026069D02*
X014556Y026069D01*
X014559Y026078D02*
X013837Y026078D01*
X013837Y026086D02*
X014561Y026086D01*
X014562Y026095D02*
X013837Y026095D01*
X013837Y026103D02*
X014090Y026103D01*
X014095Y026103D02*
X014563Y026103D01*
X014565Y026112D02*
X014133Y026112D01*
X014152Y026120D02*
X014566Y026120D01*
X014567Y026129D02*
X014167Y026129D01*
X014177Y026137D02*
X014569Y026137D01*
X014570Y026146D02*
X014185Y026146D01*
X014191Y026154D02*
X014571Y026154D01*
X014571Y026163D02*
X014196Y026163D01*
X014199Y026172D02*
X014571Y026172D01*
X014570Y026180D02*
X014202Y026180D01*
X014204Y026189D02*
X014570Y026189D01*
X014570Y026197D02*
X014204Y026197D01*
X014202Y026223D02*
X014569Y026223D01*
X014569Y026231D02*
X014200Y026231D01*
X014196Y026240D02*
X014567Y026240D01*
X014565Y026248D02*
X014192Y026248D01*
X014185Y026257D02*
X014564Y026257D01*
X014562Y026266D02*
X014178Y026266D01*
X014170Y026274D02*
X014560Y026274D01*
X014557Y026283D02*
X014162Y026283D01*
X014154Y026291D02*
X014554Y026291D01*
X014551Y026300D02*
X014146Y026300D01*
X014138Y026308D02*
X014548Y026308D01*
X014544Y026317D02*
X014130Y026317D01*
X014122Y026325D02*
X014539Y026325D01*
X014534Y026334D02*
X014115Y026334D01*
X014109Y026342D02*
X014530Y026342D01*
X014525Y026351D02*
X014104Y026351D01*
X014098Y026360D02*
X014359Y026360D01*
X014342Y026368D02*
X014092Y026368D01*
X014086Y026377D02*
X014331Y026377D01*
X014319Y026385D02*
X014081Y026385D01*
X014075Y026394D02*
X014307Y026394D01*
X014297Y026402D02*
X014070Y026402D01*
X014067Y026411D02*
X014288Y026411D01*
X014281Y026419D02*
X014063Y026419D01*
X014061Y026428D02*
X014275Y026428D01*
X014269Y026436D02*
X014059Y026436D01*
X014058Y026445D02*
X014264Y026445D01*
X014261Y026454D02*
X014057Y026454D01*
X014058Y026462D02*
X014257Y026462D01*
X014255Y026471D02*
X014059Y026471D01*
X014060Y026479D02*
X014254Y026479D01*
X014255Y026488D02*
X014062Y026488D01*
X014066Y026496D02*
X014257Y026496D01*
X014260Y026505D02*
X014069Y026505D01*
X014073Y026513D02*
X014263Y026513D01*
X014268Y026522D02*
X014079Y026522D01*
X014085Y026530D02*
X014274Y026530D01*
X014283Y026539D02*
X014093Y026539D01*
X014102Y026547D02*
X014294Y026547D01*
X014310Y026556D02*
X014330Y026562D01*
X014351Y026564D01*
X014375Y026564D01*
X014375Y026564D01*
X014374Y026565D01*
X014357Y026578D01*
X014337Y026587D01*
X014323Y026593D01*
X014314Y026597D01*
X014279Y026606D01*
X014244Y026609D01*
X014210Y026606D01*
X014177Y026597D01*
X014146Y026582D01*
X014115Y026560D01*
X014122Y026565D02*
X014374Y026565D01*
X014364Y026573D02*
X014134Y026573D01*
X014145Y026582D02*
X014349Y026582D01*
X014330Y026590D02*
X014162Y026590D01*
X014182Y026599D02*
X014307Y026599D01*
X014262Y026607D02*
X014221Y026607D01*
X014447Y026428D02*
X014448Y026428D01*
X014447Y026419D02*
X014459Y026419D01*
X014469Y026411D02*
X014447Y026411D01*
X014447Y026402D02*
X014480Y026402D01*
X014490Y026394D02*
X014447Y026394D01*
X014445Y026385D02*
X014497Y026385D01*
X014504Y026377D02*
X014439Y026377D01*
X014431Y026368D02*
X014511Y026368D01*
X014518Y026360D02*
X014419Y026360D01*
X014033Y026248D02*
X013934Y026248D01*
X013915Y026240D02*
X014021Y026240D01*
X014009Y026231D02*
X013901Y026231D01*
X013890Y026223D02*
X013998Y026223D01*
X013991Y026214D02*
X013880Y026214D01*
X013873Y026206D02*
X013988Y026206D01*
X013987Y026197D02*
X013866Y026197D01*
X013861Y026189D02*
X013986Y026189D01*
X013986Y026180D02*
X013856Y026180D01*
X013851Y026172D02*
X013987Y026172D01*
X013989Y026163D02*
X013848Y026163D01*
X013845Y026154D02*
X013992Y026154D01*
X013997Y026146D02*
X013843Y026146D01*
X013840Y026137D02*
X014003Y026137D01*
X014011Y026129D02*
X013839Y026129D01*
X013838Y026120D02*
X014025Y026120D01*
X014041Y026112D02*
X013838Y026112D01*
X013984Y026257D02*
X014008Y026257D01*
M02*
