%
M48
M72
T01C0.0200
T02C0.0400
T03C0.1300
%
T01
X12937Y16505
X11387Y18705
X12237Y19505
X12937Y19125
X14717Y19045
X14877Y19525
X16987Y20505
X16437Y22005
X14237Y21765
X13517Y21765
X12837Y21555
X12877Y22165
X11937Y21505
X11487Y23005
X12157Y23525
X15437Y24355
T02
X10337Y24505
X10337Y23505
X10337Y22505
X10337Y21505
X10337Y20505
X10337Y19505
X10337Y18505
T03
X10837Y17005
X16837Y17005
X16837Y26005
X10837Y26005
M30
